<svg xmlns="http://www.w3.org/2000/svg" viewBox="0 0 401.72 44.98"><defs><style>.cls-1{fill:#efefef;}.cls-2{fill:#ff2600;}.cls-3{fill:#ff3b19;}.cls-4{fill:#ff5132;}.cls-5{fill:#ff664c;}.cls-6{fill:#ff7c65;}.cls-7{fill:#ff917e;}.cls-8{fill:#ffa797;}.cls-9{fill:#ffbcb1;}.cls-10{fill:#ffd2ca;}.cls-11{fill:#ffe7e3;}.cls-12{fill:#ff5700;}.cls-13{fill:#ff6819;}.cls-14{fill:#ff7832;}.cls-15{fill:#ff894c;}.cls-16{fill:#ff9965;}.cls-17{fill:#ffaa7e;}.cls-18{fill:#ffba97;}.cls-19{fill:#ffcbb1;}.cls-20{fill:#ffdbca;}.cls-21{fill:#ffece3;}.cls-22{fill:#ff3b00;}.cls-23{fill:#ff4e19;}.cls-24{fill:#ff6232;}.cls-25{fill:#ff754c;}.cls-26{fill:#ff8865;}.cls-27{fill:#ff9c7e;}.cls-28{fill:#ffaf97;}.cls-29{fill:#ffc2b1;}.cls-30{fill:#ffd6ca;}.cls-31{fill:#ffe9e3;}.cls-32{fill:#ff7900;}.cls-33{fill:#ff8619;}.cls-34{fill:#ff9332;}.cls-35{fill:#ffa14c;}.cls-36{fill:#ffae65;}.cls-37{fill:#ffbb7e;}.cls-38{fill:#ffc897;}.cls-39{fill:#ffd6b1;}.cls-40{fill:#ffe3ca;}.cls-41{fill:#fff0e3;}.cls-42{fill:#ff8700;}.cls-43{fill:#ff9319;}.cls-44{fill:#ff9f32;}.cls-45{fill:#ffab4c;}.cls-46{fill:#ffb765;}.cls-47{fill:#ffc27e;}.cls-48{fill:#ffce97;}.cls-49{fill:#ffdab1;}.cls-50{fill:#ffe6ca;}.cls-51{fill:#fff2e3;}.cls-52{fill:#ff9300;}.cls-53{fill:#ff9e19;}.cls-54{fill:#ffa832;}.cls-55{fill:#ffb34c;}.cls-56{fill:#ffbe65;}.cls-57{fill:#ffc87e;}.cls-58{fill:#ffd397;}.cls-59{fill:#ffdeb1;}.cls-60{fill:#ffe8ca;}.cls-61{fill:#fff3e3;}.cls-62{fill:#ffb200;}.cls-63{fill:#ffba19;}.cls-64{fill:#ffc132;}.cls-65{fill:#ffc94c;}.cls-66{fill:#ffd065;}.cls-67{fill:#ffd87e;}.cls-68{fill:#ffdf97;}.cls-69{fill:#ffe7b1;}.cls-70{fill:#ffeeca;}.cls-71{fill:#fff6e3;}.cls-72{fill:#ffd000;}.cls-73{fill:#ffd519;}.cls-74{fill:#ffd932;}.cls-75{fill:#ffde4c;}.cls-76{fill:#ffe365;}.cls-77{fill:#ffe77e;}.cls-78{fill:#ffec97;}.cls-79{fill:#fff1b1;}.cls-80{fill:#fff5ca;}.cls-81{fill:#fffae3;}.cls-82{fill:#ffdf00;}.cls-83{fill:#ffe219;}.cls-84{fill:#ffe532;}.cls-85{fill:#ffe84c;}.cls-86{fill:#ffeb65;}.cls-87{fill:#ffef7e;}.cls-88{fill:#fff297;}.cls-89{fill:#fff5b1;}.cls-90{fill:#fff8ca;}.cls-91{fill:#fffbe3;}.cls-92{fill:#ffed00;}.cls-93{fill:#ffef19;}.cls-94{fill:#fff132;}.cls-95{fill:#fff24c;}.cls-96{fill:#fff465;}.cls-97{fill:#fff67e;}.cls-98{fill:#fff897;}.cls-99{fill:#fff9b1;}.cls-100{fill:#fffbca;}.cls-101{fill:#fffde3;}.cls-102{fill:#dced00;}.cls-103{fill:#dfef19;}.cls-104{fill:#e3f132;}.cls-105{fill:#e6f24c;}.cls-106{fill:#eaf465;}.cls-107{fill:#edf67e;}.cls-108{fill:#f1f897;}.cls-109{fill:#f4f9b1;}.cls-110{fill:#f8fbca;}.cls-111{fill:#fbfde3;}.cls-112{fill:#badf00;}.cls-113{fill:#c1e219;}.cls-114{fill:#c8e532;}.cls-115{fill:#cee84c;}.cls-116{fill:#d5eb65;}.cls-117{fill:#dcef7e;}.cls-118{fill:#e3f297;}.cls-119{fill:#e9f5b1;}.cls-120{fill:#f0f8ca;}.cls-121{fill:#f7fbe3;}.cls-122{fill:#70c700;}.cls-123{fill:#7ecd19;}.cls-124{fill:#8cd232;}.cls-125{fill:#9ad84c;}.cls-126{fill:#a8dd65;}.cls-127{fill:#b7e37e;}.cls-128{fill:#c5e897;}.cls-129{fill:#d3eeb1;}.cls-130{fill:#e1f3ca;}.cls-131{fill:#eff9e3;}.cls-132{fill:#3bbe00;}.cls-133{fill:#4ec419;}.cls-134{fill:#62cb32;}.cls-135{fill:#75d14c;}.cls-136{fill:#88d865;}.cls-137{fill:#9cde7e;}.cls-138{fill:#afe597;}.cls-139{fill:#c2ebb1;}.cls-140{fill:#d6f2ca;}.cls-141{fill:#e9f8e3;}.cls-142{fill:#00b600;}.cls-143{fill:#19bd19;}.cls-144{fill:#32c432;}.cls-145{fill:#4ccc4c;}.cls-146{fill:#65d365;}.cls-147{fill:#7eda7e;}.cls-148{fill:#97e197;}.cls-149{fill:#b1e9b1;}.cls-150{fill:#caf0ca;}.cls-151{fill:#e3f7e3;}.cls-152{fill:#00bd4f;}.cls-153{fill:#19c460;}.cls-154{fill:#32ca72;}.cls-155{fill:#4cd183;}.cls-156{fill:#65d794;}.cls-157{fill:#7edea6;}.cls-158{fill:#97e4b7;}.cls-159{fill:#b1ebc8;}.cls-160{fill:#caf1da;}.cls-161{fill:#e3f8eb;}.cls-162{fill:#00c6a0;}.cls-163{fill:#19cca9;}.cls-164{fill:#32d1b3;}.cls-165{fill:#4cd7bc;}.cls-166{fill:#65ddc5;}.cls-167{fill:#7ee2cf;}.cls-168{fill:#97e8d8;}.cls-169{fill:#b1eee1;}.cls-170{fill:#caf3eb;}.cls-171{fill:#e3f9f4;}.cls-172{fill:#00afcf;}.cls-173{fill:#19b7d4;}.cls-174{fill:#32bfd9;}.cls-175{fill:#4cc7dd;}.cls-176{fill:#65cfe2;}.cls-177{fill:#7ed6e7;}.cls-178{fill:#97deec;}.cls-179{fill:#b1e6f0;}.cls-180{fill:#caeef5;}.cls-181{fill:#e3f6fa;}.cls-182{fill:#009bcc;}.cls-183{fill:#19a5d1;}.cls-184{fill:#32afd6;}.cls-185{fill:#4cb9db;}.cls-186{fill:#65c3e0;}.cls-187{fill:#7ecce5;}.cls-188{fill:#97d6ea;}.cls-189{fill:#b1e0ef;}.cls-190{fill:#caeaf4;}.cls-191{fill:#e3f4f9;}.cls-192{fill:#0087c3;}.cls-193{fill:#1993c9;}.cls-194{fill:#329fcf;}.cls-195{fill:#4cabd5;}.cls-196{fill:#65b7db;}.cls-197{fill:#7ec2e0;}.cls-198{fill:#97cee6;}.cls-199{fill:#b1daec;}.cls-200{fill:#cae6f2;}.cls-201{fill:#e3f2f8;}.cls-202{fill:#0074bf;}.cls-203{fill:#1982c5;}.cls-204{fill:#3290cc;}.cls-205{fill:#4c9dd2;}.cls-206{fill:#65abd8;}.cls-207{fill:#7eb9df;}.cls-208{fill:#97c7e5;}.cls-209{fill:#b1d4eb;}.cls-210{fill:#cae2f2;}.cls-211{fill:#e3f0f8;}.cls-212{fill:#0040ba;}.cls-213{fill:#1953c1;}.cls-214{fill:#3266c8;}.cls-215{fill:#4c79ce;}.cls-216{fill:#658cd5;}.cls-217{fill:#7e9edc;}.cls-218{fill:#97b1e3;}.cls-219{fill:#b1c4e9;}.cls-220{fill:#cad7f0;}.cls-221{fill:#e3eaf7;}.cls-222{fill:#0229ba;}.cls-223{fill:#1b3ec1;}.cls-224{fill:#3453c8;}.cls-225{fill:#4d68ce;}.cls-226{fill:#667dd5;}.cls-227{fill:#7f93dc;}.cls-228{fill:#98a8e3;}.cls-229{fill:#b1bde9;}.cls-230{fill:#cad2f0;}.cls-231{fill:#e3e7f7;}.cls-232{fill:#4d22b3;}.cls-233{fill:#5f38bb;}.cls-234{fill:#704ec2;}.cls-235{fill:#8263ca;}.cls-236{fill:#9379d1;}.cls-237{fill:#a58fd9;}.cls-238{fill:#b6a5e0;}.cls-239{fill:#c8bae8;}.cls-240{fill:#d9d0ef;}.cls-241{fill:#ebe6f7;}.cls-242{fill:#7524af;}.cls-243{fill:#833ab7;}.cls-244{fill:#904fbf;}.cls-245{fill:#9e65c7;}.cls-246{fill:#ac7bcf;}.cls-247{fill:#b990d6;}.cls-248{fill:#c7a6de;}.cls-249{fill:#d5bce6;}.cls-250{fill:#e2d1ee;}.cls-251{fill:#f0e7f6;}.cls-252{fill:#a92bbc;}.cls-253{fill:#b140c3;}.cls-254{fill:#ba55c9;}.cls-255{fill:#c26ad0;}.cls-256{fill:#cb7fd7;}.cls-257{fill:#d393dd;}.cls-258{fill:#dca8e4;}.cls-259{fill:#e4bdeb;}.cls-260{fill:#edd2f1;}.cls-261{fill:#f5e7f8;}.cls-262{fill:#c82db3;}.cls-263{fill:#cd42bb;}.cls-264{fill:#d357c2;}.cls-265{fill:#d86bca;}.cls-266{fill:#de80d1;}.cls-267{fill:#e395d9;}.cls-268{fill:#e9aae0;}.cls-269{fill:#eebee8;}.cls-270{fill:#f4d3ef;}.cls-271{fill:#f9e8f7;}.cls-272{fill:#d2278d;}.cls-273{fill:#d63c98;}.cls-274{fill:#db52a3;}.cls-275{fill:#df67af;}.cls-276{fill:#e47cba;}.cls-277{fill:#e892c5;}.cls-278{fill:#eda7d0;}.cls-279{fill:#f1bcdc;}.cls-280{fill:#f6d2e7;}.cls-281{fill:#fae7f2;}.cls-282{fill:#e5276f;}.cls-283{fill:#e83c7d;}.cls-284{fill:#ea528b;}.cls-285{fill:#ed679a;}.cls-286{fill:#ef7ca8;}.cls-287{fill:#f292b6;}.cls-288{fill:#f4a7c4;}.cls-289{fill:#f7bcd3;}.cls-290{fill:#f9d2e1;}.cls-291{fill:#fce7ef;}.cls-292{fill:#f22540;}.cls-293{fill:#f33b53;}.cls-294{fill:#f55066;}.cls-295{fill:#f66679;}.cls-296{fill:#f77b8c;}.cls-297{fill:#f9919e;}.cls-298{fill:#faa6b1;}.cls-299{fill:#fbbcc4;}.cls-300{fill:#fdd1d7;}.cls-301{fill:#fee7ea;}</style></defs><g id="Слой_2" data-name="Слой 2"><g id="Слой_1-2" data-name="Слой 1"><path class="cls-1" d="M213.39,34.7c-.52.33-1.16.7-1.93,1.13s-1.68.9-2.72,1.41-1.76.82-2.47,1.14a16.79,16.79,0,0,1-1.81.71,10.93,10.93,0,0,1-2.25.59,16.39,16.39,0,0,1-2.44.18,4.76,4.76,0,0,1-.87-.09l-1-.23-1.14-.25a3.93,3.93,0,0,0-.78-.13l-.31-.26-.75-.08a2.82,2.82,0,0,1-1.18-.41,8.62,8.62,0,0,1-1.49-1.07A9.24,9.24,0,0,1,191,36.13a4.68,4.68,0,0,1-.69-1.05l-.7-1.83c-.24-.63-.42-1.13-.55-1.52a2.1,2.1,0,0,1-.15-.74l.28-1-.32-.81a1.6,1.6,0,0,1-.12-.49c0-.12,0-.47.13-1.05s.21-1.39.37-2.43c.12-.2.25-.44.39-.73a9.15,9.15,0,0,0,.38-1l-.07-.47a1.08,1.08,0,0,1,.09-.39,4.43,4.43,0,0,1,.24-.5l1.2-2.11c.4-.71.79-1.4,1.19-2.07A10.74,10.74,0,0,1,194,16.44c.54-.54,1.17-1.1,1.88-1.69l.57-.55c.22-.23.49-.48.8-.75a7.87,7.87,0,0,0,1.08-.65c.42-.29.93-.66,1.52-1.12a6.42,6.42,0,0,0,.62-.23l.88-.37a1.73,1.73,0,0,0,.33-.21l.45-.32a9.07,9.07,0,0,1,2.08-.64,13.9,13.9,0,0,1,2.33-.43,12.91,12.91,0,0,1,2,.14,3.92,3.92,0,0,1,1.32.44l.83.13a2.05,2.05,0,0,1,1.53,1.3,8.13,8.13,0,0,1,.5,3.2c0,.65,0,1.18,0,1.57a4.57,4.57,0,0,1-.08.8c-.1.42-.22,1-.35,1.61s-.3,1.4-.5,2.25a4.64,4.64,0,0,1-.35,1.12c-.22.52-.5,1.16-.84,1.93a19,19,0,0,1-.94,1.91c-.25.43-.47.67-.64.71l-2.23.47A3,3,0,0,1,206,27c-.16,0-.24-.13-.24-.25a2,2,0,0,1,.09-.47,2,2,0,0,0,.09-.44l-.15-1.65A6.26,6.26,0,0,1,206,23c.13-.58.34-1.33.62-2.24s.55-1.78.77-2.36a3.88,3.88,0,0,1,.55-1.07,4.86,4.86,0,0,0,1.09-1.1,1.72,1.72,0,0,0,.35-.95,1.62,1.62,0,0,0-.35-1,2.14,2.14,0,0,0-1.05-.68l-1.36-.25c-.46-.07-.91-.17-1.36-.28-.37.11-.69.19-1,.25l-.74.15a7.77,7.77,0,0,0-3.33,1.32,13.3,13.3,0,0,0-3,3,17.56,17.56,0,0,0-1.92,3.34,14.26,14.26,0,0,0-1,3.36c-.06.34-.15.76-.26,1.27s-.25,1.1-.44,1.78q.24.64.42,1.17l-.26,1.95a1.18,1.18,0,0,0,.23.43c.16.22.4.55.73,1a4.66,4.66,0,0,1,.52.86,5.17,5.17,0,0,1,.36,1.11,1.35,1.35,0,0,0,.2.32,1.18,1.18,0,0,0,.32.27,8.65,8.65,0,0,0,.75.49,8.29,8.29,0,0,0,2.38,1.49,7.25,7.25,0,0,0,2.68.5c.09,0,.41,0,1-.11s1.33-.18,2.32-.34a3.91,3.91,0,0,1,.69-.3c.28-.1.62-.21,1-.32a3.53,3.53,0,0,1,1-.61,2.89,2.89,0,0,1,1-.18l.32-.36a5,5,0,0,1,.51-.47,6.7,6.7,0,0,0,1.43-.67,9.26,9.26,0,0,0,1.24-1A19.78,19.78,0,0,1,213.39,34.7Z"/><path class="cls-1" d="M214.4,25a1.56,1.56,0,0,1,.2-.66,5.67,5.67,0,0,1,.58-.87c.36-.43.64-.76.82-1a2.46,2.46,0,0,0,.3-.47c.08-.16.2-.37.35-.62s.31-.55.5-.88a3,3,0,0,0,.6-1c.22-.52.48-1.2.78-2.06.14-.23.28-.5.44-.82s.34-.7.57-1.14a6.24,6.24,0,0,1,.39-1.15c.19-.44.43-.93.73-1.48s.74-1,1.14-1.51a3.46,3.46,0,0,1,1.71-1.11,2.76,2.76,0,0,1,.67.47.67.67,0,0,1,.24.45,2.9,2.9,0,0,1-.59,1.42,3,3,0,0,0-.58,1.2c0,.12.08.22.23.32a3.66,3.66,0,0,0,.76-.51c.36-.28.84-.67,1.42-1.15s.92-.67,1.31-.91a3.33,3.33,0,0,1,1.11-.44,7,7,0,0,1,.85-.19,9.55,9.55,0,0,0,1.17-.27,3,3,0,0,0,.55-.3,2.21,2.21,0,0,1,.57-.26l.39.06a3.58,3.58,0,0,0,1.29.4,10.84,10.84,0,0,0,1.35.2,3.31,3.31,0,0,1,.55.34,7.48,7.48,0,0,0,.8.52,6.55,6.55,0,0,1,1.94,1.5,11.16,11.16,0,0,1,1.62,2.46,14.8,14.8,0,0,1,1,2.56,8.27,8.27,0,0,1,.35,2.35,16,16,0,0,1-1.09,6.19,10.17,10.17,0,0,1-3.29,4.3l-.51.42-.74.59v.23a1,1,0,0,1-.3.46,6.9,6.9,0,0,1-.68.57L232,34.67c-.66.49-1.33,1-2,1.44a15.55,15.55,0,0,1-2.46,1.45,10.27,10.27,0,0,1-2.26.74,3.31,3.31,0,0,1-1.15.53,6.75,6.75,0,0,1-1.68.18,13.84,13.84,0,0,1-2.36-.16,3,3,0,0,1-1.29-.46,4.07,4.07,0,0,0-.55-.38c-.21-.13-.45-.3-.73-.5a2.59,2.59,0,0,1-.83-1,9.13,9.13,0,0,1-.7-1.91c-.14-.58-.24-1.15-.32-1.69a10.68,10.68,0,0,1-.12-1.53,2.92,2.92,0,0,1,.13-.7,2.47,2.47,0,0,0,.11-.75,5.21,5.21,0,0,0-.06-.85,4.38,4.38,0,0,1,.29-1.22,4.27,4.27,0,0,0,.28-1.32.66.66,0,0,0-.15-.32,3.16,3.16,0,0,0-.6.7,1,1,0,0,1-.36.32.89.89,0,0,1-.39.11.55.55,0,0,1-.45-.19.82.82,0,0,1-.17-.58,2.92,2.92,0,0,1,.14-.77A3.37,3.37,0,0,0,214.4,25ZM230,14.58a7,7,0,0,0-1.27.13,11.86,11.86,0,0,0-1.32.36l-2.52.92a3.46,3.46,0,0,0-.59.34,6.28,6.28,0,0,0-.71.64l-1.19,1.22a4.73,4.73,0,0,0-1,2,25.7,25.7,0,0,0-.78,3.83c-.18,1.21-.3,2.34-.37,3.39s-.1,2-.1,2.89a6.7,6.7,0,0,0,1,4,3.61,3.61,0,0,0,3.06,1.33,6.85,6.85,0,0,0,2.16-.41A13.93,13.93,0,0,0,228.93,34a19.08,19.08,0,0,0,2.1-1.46,9.78,9.78,0,0,0,1.51-1.51,11.1,11.1,0,0,0,.82-1.26c.37-.64.88-1.51,1.54-2.62a12.89,12.89,0,0,0,1-2.46,8.92,8.92,0,0,0,.37-2.57c-.11-.43-.22-.85-.34-1.26l.18-.92c-.17-.17-.32-.33-.44-.47l-.13-.28a7.76,7.76,0,0,0-2.18-3.46A5.07,5.07,0,0,0,230,14.58Z"/><path class="cls-1" d="M246.61,15.48l-.42-1.39c.11-.28.21-.57.32-.86s.2-.58.28-.87a1,1,0,0,1,.53-.45,2.58,2.58,0,0,1,1-.16,4.3,4.3,0,0,0,.72-.09,4,4,0,0,1,.69-.08,1.22,1.22,0,0,1,.62.29,2.12,2.12,0,0,0,.55.35,3.54,3.54,0,0,0,.45-.37c.18-.17.4-.4.66-.68a4.32,4.32,0,0,1,.65-.55,1.8,1.8,0,0,1,.68-.3l.73.27a.53.53,0,0,1,.25.2.5.5,0,0,1,.07.29,1.56,1.56,0,0,1-.13.46c-.09.24-.22.55-.39,1s-.34.78-.44,1.07a3.93,3.93,0,0,0-.21.66,5.94,5.94,0,0,0-.61.89,1.45,1.45,0,0,0-.22.73,4,4,0,0,0,.31,1.27c.2.56.51,1.26.9,2.1.56,1.14,1.12,2.33,1.69,3.56s1.06,2.69,1.63,4,1.17,2.49,1.79,3.66a29.05,29.05,0,0,0,1.58,2.73c.42.6.73.9.94.9a.4.4,0,0,0,.37-.25,1.86,1.86,0,0,0,.12-.78,3.35,3.35,0,0,1,.06-.55,4.39,4.39,0,0,1,.22-.75,12.29,12.29,0,0,0,.44-1.3c.17-.74.33-1.39.48-1.94s.27-1,.37-1.43a12.14,12.14,0,0,0,.23-1.62c.09-.83.18-1.94.26-3.35a2.89,2.89,0,0,1,.09-.6c.06-.25.12-.55.17-.87s.12-.61.16-.85a5,5,0,0,0,.05-.62,11.5,11.5,0,0,0-.13-1.47,11.23,11.23,0,0,1-.13-1.46c.26-.89.5-1.77.73-2.62s.37-1.36.54-1.85.32-.86.44-1.12a5.62,5.62,0,0,1,1-1.33A5.31,5.31,0,0,1,268,8.33h.21a.51.51,0,0,1,.35.09.36.36,0,0,1,.09.28,7,7,0,0,1-.24.68c.05.25.11.52.16.81a6.6,6.6,0,0,1-.18.89,7.13,7.13,0,0,0-.11.72c0,.32-.05.71-.05,1.16,0,.17,0,.54-.08,1.1s-.14,1.31-.28,2.25c-.1,1.34-.23,2.67-.38,4s-.29,2.65-.45,4a41.42,41.42,0,0,1-.6,4.36,26.4,26.4,0,0,1-.93,3.53,14.55,14.55,0,0,1-.48,2.09c-.23.77-.53,1.6-.89,2.5l-.8,1.06a10.84,10.84,0,0,1-1.64.55,16,16,0,0,1-1.73.46c-.26,0-.65-.28-1.17-.85A17.31,17.31,0,0,1,257,35.4c-.68-1-1.21-1.89-1.61-2.57a7.53,7.53,0,0,1-.75-1.52c0-.13-.09-.29-.16-.49s-.15-.43-.23-.69l-1.31-2.32c-.53-.92-1.14-2-1.83-3.29a5.46,5.46,0,0,0-.46-.9,10.28,10.28,0,0,0-.66-.93l-.18.06a9.45,9.45,0,0,0-.36,1.07c-.12.43-.26.94-.42,1.54a8.05,8.05,0,0,1-.55,1c-.26.82-.55,1.72-.88,2.69l-1.07,3.11c-.1.37-.21.76-.31,1.15s-.22.81-.36,1.24l-.47.71c-.07.42-.15.84-.24,1.25s-.27.73-.45,1.19-.41,1-.66,1.65a1.2,1.2,0,0,1-.38.74,1.34,1.34,0,0,1-.82.26.49.49,0,0,1-.21.18,1.65,1.65,0,0,1-.51.19.35.35,0,0,1-.39-.23,1.77,1.77,0,0,1-.13-.78,4.85,4.85,0,0,1,.13-.93c.08-.43.21-1,.39-1.63l.45-1.74c.11-.41.19-.68.22-.79.07-.35.15-.79.24-1.35s.18-1.19.28-1.92a6.75,6.75,0,0,1,.17-.69c.08-.28.18-.6.3-1s.26-1.06.52-2.32.59-3,1-5.25S246.19,17.71,246.61,15.48Z"/><path class="cls-1" d="M287.14,18.32c-.07-.25-.14-.46-.21-.64.08-.42.18-.82.28-1.21a11.61,11.61,0,0,0,.26-1.2,5.29,5.29,0,0,1,.64-1.48,1.66,1.66,0,0,1,.82-.7l1.66-.58.8-.21a.46.46,0,0,1,.42.21,1.3,1.3,0,0,1,.13.62c0,.1-.05.39-.13.86s-.21,1.13-.37,2l-.09.62a5,5,0,0,1-.11.64.92.92,0,0,1-.19.5c-.12.19-.27.42-.46.67a4.48,4.48,0,0,1-.56,2.07q-.69,1.65-2.14,4.44-1.22,2.32-2.15,4.07c-.62,1.17-1.17,2.13-1.63,2.88-.24.4-.52.83-.83,1.29l-1,1.44c.15.3.3.57.44.81a1.18,1.18,0,0,1-.1.43l-.91.87c-.37.36-.79.76-1.27,1.2l-1.07.43c-.26.28-.47.53-.64.74a4.86,4.86,0,0,1-.92.35,3,3,0,0,1-.8.12,1.74,1.74,0,0,1-1.2-.51,1.42,1.42,0,0,1-.56-1.05c0-.24.2-.54.59-.89a3.71,3.71,0,0,0,.68-.7l-.08-.22-.26-.28a5.5,5.5,0,0,0-.28-1,5.6,5.6,0,0,0-.44-.84,7,7,0,0,1-.84-1.57,17.8,17.8,0,0,1-.67-2.12c-.09-.37-.16-.66-.2-.88a3.37,3.37,0,0,1-.06-.44,3,3,0,0,1-.24-.43c-.08-.18-.18-.4-.28-.64q-.13-.7-.33-1.77c-.13-.71-.26-1.54-.4-2.5a1.35,1.35,0,0,0-.07-.4c0-.16-.11-.35-.19-.58a2,2,0,0,1-.21-.55,1.72,1.72,0,0,1-.05-.43c0-.41,0-.82,0-1.21a1.15,1.15,0,0,1-.1-.56l.21-.83a2.47,2.47,0,0,1-.43-.73,2.72,2.72,0,0,1-.17-1,1.06,1.06,0,0,1,.08-.4,2.53,2.53,0,0,1,.18-.37,3.94,3.94,0,0,1-.21-.69,3.62,3.62,0,0,1-.08-.76,2.3,2.3,0,0,1-.37-.63.79.79,0,0,1,0-.54l.15-.85c-.07-.22-.13-.39-.18-.54.19-.85.36-1.53.49-2a7.1,7.1,0,0,1,.32-1,3.09,3.09,0,0,1,1.1-1.2,4.46,4.46,0,0,1,1.78-.63,7,7,0,0,1,.63-.34,1.13,1.13,0,0,1,.51-.13.76.76,0,0,1,.53.22,1.64,1.64,0,0,1,.4.65,3.32,3.32,0,0,1,.17.71,2.6,2.6,0,0,1,0,.62c-.07.52-.13,1.13-.2,1.81s-.12,1.44-.16,2.28a3.09,3.09,0,0,1-.23.48,1.22,1.22,0,0,0-.18.53,2.19,2.19,0,0,0,.18.68,2.19,2.19,0,0,1,.18.68,4.71,4.71,0,0,1-.05.47c0,.23-.09.66-.16,1.3.07.33.16.67.26,1a4.83,4.83,0,0,1-.08.76,6.14,6.14,0,0,0-.07.79.37.37,0,0,0,.05.23,4.68,4.68,0,0,1,.21.58,9.41,9.41,0,0,0,.11,1.08c.06.41.14.89.22,1.44s.2,1.09.33,1.81.25,1.57.38,2.52l0,.71a.86.86,0,0,0,.11.35,1.77,1.77,0,0,0,.31.41c.1.39.22.8.34,1.24s.24.9.36,1.37a.78.78,0,0,0,.19.36.41.41,0,0,0,.28.13,5,5,0,0,0,.91-1,4.82,4.82,0,0,0,.61-.87c.25-.42.55-1,.89-1.69a5.07,5.07,0,0,1,.39-.66c.17-.26.37-.55.6-.88a11.55,11.55,0,0,0,.93-1.56c.4-.75.88-1.75,1.45-3,.47-1,.86-1.89,1.18-2.61s.55-1.25.69-1.64Z"/><path class="cls-1" d="M313.32,32.74l1,2c-.19.14-.42.29-.68.46s-.59.34-.95.52-.8.24-1.31.43l-1.75.64c-.5.25-.92.45-1.23.57a2.24,2.24,0,0,1-.67.19,5.87,5.87,0,0,0-1.23.24c-.6.16-1.38.39-2.35.7l-1.65.48c-.57.17-1.18.31-1.8.44l-1.61-.28-1,.37h-1c-.34,0-.66,0-1-.06a3.33,3.33,0,0,1-1.12-.17c-.26-.1-.38-.24-.38-.42l.15-.82-.15-.14a2.38,2.38,0,0,1-1.18-.2c-.2-.13-.3-.42-.3-.89,0-.22,0-.57,0-1.07s.06-1.14.12-1.94a1.4,1.4,0,0,1,.16-.45,1.21,1.21,0,0,0,.17-.49,1,1,0,0,1-.15-.34,1.05,1.05,0,0,1,0-.24c0-.55.11-1.23.22-2s.26-1.77.43-2.88a16.84,16.84,0,0,0,.52-2.26c0-.63-.07-1.27-.1-1.92.64-2.36,1.29-4.74,2-7.13a3.42,3.42,0,0,1,.58-1.22,7.52,7.52,0,0,1,1-1.1,1.39,1.39,0,0,0,.33-.24l.34-.48c.14-.19.3-.41.49-.65l.51-.26.95-.46.59-.41.78-.55a19.56,19.56,0,0,0,1.83-1A4.7,4.7,0,0,1,306,8.91l1.19-.05,1.14-.08c.35-.06.65-.09.91-.11a4.12,4.12,0,0,0,.45-.08,1.56,1.56,0,0,1,.35,0l.43,0,.74.09.63,0a3.91,3.91,0,0,0,.49,0,3.22,3.22,0,0,1,1.53.75,1.59,1.59,0,0,1,.49,1.17,5.1,5.1,0,0,1-.35,2.19,1.15,1.15,0,0,1-1.1.72,2.4,2.4,0,0,1-1.3-.49c-.48-.31-1.79-.47-3.92-.47l-2.62.42a.75.75,0,0,1-.3.26l-.29.13-.91-.28a2.29,2.29,0,0,0-.94.7,9.67,9.67,0,0,0-1.09,1.58,1.73,1.73,0,0,0-.19.53,4.16,4.16,0,0,0-.07.75q-.46,1.53-.93,3c-.29,1-.53,1.8-.71,2.32s-.29.85-.33,1-.09.28-.13.41a1.58,1.58,0,0,0-.05.38.61.61,0,0,0,.13.43.5.5,0,0,0,.39.15,3.22,3.22,0,0,0,1.13-.71,3.84,3.84,0,0,1,1.33-.79q.56-.12,1.11-.27c.37-.1.75-.22,1.15-.37a12.07,12.07,0,0,1,1.23-.17l2.79-.25.73.17,1.38-.22.72.28a2.39,2.39,0,0,1,.48.52,4.5,4.5,0,0,1,.4.68,4.49,4.49,0,0,1-.33,1.94,1.09,1.09,0,0,1-1,.66l-1.43-.47-3.49.29-3.52.26A8.46,8.46,0,0,0,299,27a2.84,2.84,0,0,0-1.29,2.13,6.28,6.28,0,0,1-.18.85c-.11.39-.23.86-.37,1.43l.18.64c-.15.61-.27,1.19-.36,1.73a8.83,8.83,0,0,0-.13,1.45.5.5,0,0,0,.08.31.14.14,0,0,0,.18,0c.83,0,1.5-.1,2-.12a8.08,8.08,0,0,1,1.06,0l1.38.08,1.63-.11a7.89,7.89,0,0,0,1.13-.34,4.85,4.85,0,0,1,1.57-.3,9.83,9.83,0,0,0,1.52-.12,10.74,10.74,0,0,0,1.46-.35l1.39-.43,1.39-.44a4.83,4.83,0,0,0,.69-.24C312.6,33.07,312.94,32.92,313.32,32.74Z"/><path class="cls-1" d="M323.1,27.12c0,.28.25.66.74,1.14A19,19,0,0,0,326.06,30q1,.66,2,1.29l2,1.27,1.14.78c.47.32,1,.7,1.64,1.12.45.29.92.57,1.41.86s1,.57,1.6.85l1.27.79c.47.28,1,.59,1.61.92a1.74,1.74,0,0,1,.8.93,5.2,5.2,0,0,1,.34,1.74l-.23.55-.26.11a1.85,1.85,0,0,1-.69-.18c-.29-.13-.65-.3-1.08-.53l-1.18-.47-3-1.15a15.42,15.42,0,0,1-2-.86,13.81,13.81,0,0,1-1.66-1,10.53,10.53,0,0,0-1.13-.7q-.69-.39-1.62-.84c-.64-.3-1.19-.58-1.66-.85s-.84-.5-1.12-.68c-.93-.63-1.69-1.11-2.28-1.43a3.22,3.22,0,0,0-1.22-.49,1.08,1.08,0,0,0-.29.61c-.2.67-.42,1.52-.66,2.54s-.49,2.2-.76,3.55a.83.83,0,0,1-.16.54.56.56,0,0,1-.47.19,2.47,2.47,0,0,1-1.53-.41,1.46,1.46,0,0,1-.52-1.22,16.8,16.8,0,0,1,.17-2.28,17.22,17.22,0,0,1,.56-2.52c.09-.39.15-.73.2-1a6.38,6.38,0,0,0,.06-.84,2,2,0,0,0-1-1.69c-.69-.47-1-.8-1-1a1.9,1.9,0,0,1,.17-.82,1.38,1.38,0,0,1,.5-.57c.58-.29,1.1-.58,1.59-.85a.44.44,0,0,0,.24-.29,1.66,1.66,0,0,0,.07-.56v-.92c.05-1.26.09-2.58.13-3.94V20c0-.21,0-.49-.05-.83a3,3,0,0,1,0-.72q0-.33,0-.6c-.11-.29-.2-.53-.27-.74a1.63,1.63,0,0,1-.12-.59,7.53,7.53,0,0,1,.05-.8c0-.36,0-.62,0-.78a8.16,8.16,0,0,0-.06-.83,6,6,0,0,1-.07-.81,2.84,2.84,0,0,1,.43-1.47,5.23,5.23,0,0,1,1.31-1.38A7.32,7.32,0,0,1,321,9.58a5.5,5.5,0,0,1,1.83-.31c.3,0,.73,0,1.31.05s1,.06,1.36.06a9.21,9.21,0,0,1,1.85.47c.39,0,.75.06,1.06.11s.56.11.75.16l1,.4a4.11,4.11,0,0,0,.52.16c.3.08.55.16.77.21a1.88,1.88,0,0,1,.53.22l.79.29,1,.39a11.5,11.5,0,0,1,1.75.89,14.36,14.36,0,0,1,1.54,1.11,6.13,6.13,0,0,1,1.25,1.51,3,3,0,0,1,.41,1.46,5.37,5.37,0,0,1,0,.6,6.74,6.74,0,0,1-.14.89,2.44,2.44,0,0,1-.78,1.33,11.57,11.57,0,0,1-2,1.57,25,25,0,0,1-2.18,1.25,9.38,9.38,0,0,1-1.87.71,3.26,3.26,0,0,0-.52.36,5.88,5.88,0,0,1-1.09.6c-.55.26-1.3.57-2.25,1-1.73.7-3,1.15-3.69,1.37S323.1,26.86,323.1,27.12Zm-2.72-10.28.93-.58a2,2,0,0,1,1.14-.29c.21,0,.47.19.77.56a1.69,1.69,0,0,1,.45.85,3.85,3.85,0,0,1-.13.68c-.08.35-.22.84-.41,1.45-.4,1.38-.63,2.24-.68,2.59s-.16.89-.33,1.63a5.51,5.51,0,0,0-.21.72.38.38,0,0,0,.09.28.32.32,0,0,0,.24.08l5.35-2.21.44-.12.44-.16.39-.4c1-.53,2-1.09,3.12-1.69a6,6,0,0,0,1.5-1.26,2,2,0,0,0,.49-1.23q0-.79-1.11-1.56a13.18,13.18,0,0,0-3.35-1.47,28.82,28.82,0,0,0-3.45-.91,15.81,15.81,0,0,0-2.83-.28,5.15,5.15,0,0,0-2.5.48,1.53,1.53,0,0,0-.85,1.41,3.73,3.73,0,0,0,.13,1.1C320.1,16.76,320.22,16.87,320.38,16.84Z"/><path class="cls-1" d="M343.05,8.93a16.93,16.93,0,0,1,2.33-.38,26.42,26.42,0,0,1,2.79-.13,6.62,6.62,0,0,1,.84.07,7.18,7.18,0,0,0,.9.08,5.62,5.62,0,0,1,.75.13l.78.14.72-.17a1.57,1.57,0,0,1,.51.16,7.06,7.06,0,0,0,.66.31c.14-.07.34-.15.6-.25a.85.85,0,0,1,.63.24,1.31,1.31,0,0,1,.33.7v.67a4.2,4.2,0,0,1-.06.69,2.79,2.79,0,0,0,0,.53,3.52,3.52,0,0,1,.05.56.4.4,0,0,1-.13.34.5.5,0,0,1-.33.11,14,14,0,0,1-1.95-.14,13.2,13.2,0,0,1-1.92-.42c-.55.09-1,.15-1.45.19a3.61,3.61,0,0,0-.73.13c-.16.06-.23.13-.23.22a2.45,2.45,0,0,0,.28.32,2.63,2.63,0,0,0,.44.32,1.55,1.55,0,0,1,.42.45,7.41,7.41,0,0,1,.49.95,1.77,1.77,0,0,1,.14.45,2,2,0,0,1,0,.41,7.41,7.41,0,0,1-.1,1.12,9.8,9.8,0,0,1-.23,1.1c-.16.55-.28,1-.37,1.37s-.15.64-.2.82a2.48,2.48,0,0,0-.08.51c0,.2,0,.43-.05.69a3.28,3.28,0,0,1-.21.8c-.12.32-.24.68-.37,1.1a3.27,3.27,0,0,1-.07.64l-.21.83a3.55,3.55,0,0,1-.25.63,6.71,6.71,0,0,0-.32.82c0,.21.06.43.08.66-.07.4-.14.81-.21,1.24-.11.61-.21,1.23-.31,1.85s-.2,1.23-.29,1.82l-.34.57a3,3,0,0,0,.07.46,2.76,2.76,0,0,1,.06.5,3.38,3.38,0,0,1-.1.7,3.25,3.25,0,0,0-.1.67q0,.41,0,1.26c0,.57,0,1,0,1.28s.17.47.24.7a2.37,2.37,0,0,1-.17.48.71.71,0,0,1-.25.29c-.31.15-.59.28-.85.38l-.43.34a.48.48,0,0,1-.3.13,1.7,1.7,0,0,1-.8-.13.38.38,0,0,1-.24-.34c0-.47.1-.92.18-1.36a2.54,2.54,0,0,1-.11-.26c0-.11-.11-.26-.2-.43-.08-1.11-.2-2.24-.34-3.41.06-.84.08-1.68.08-2.54,0-.4,0-.9.07-1.5s.12-1.31.24-2.1.21-1.5.26-2.09.08-1.09.08-1.48a3.61,3.61,0,0,1,.07-.65c0-.26.09-.58.14-1s.1-.62.15-.88a3.17,3.17,0,0,0,.08-.72c0-.11,0-.23,0-.36s0-.24-.06-.34a8.78,8.78,0,0,0,.39-.86,1.57,1.57,0,0,0,.13-.44c-.07-.19-.14-.37-.23-.56a5.18,5.18,0,0,0,.34-1.07q.18-.78.39-2v-.62c0-.24,0-.53,0-.87L345,13l-.38-.11a6.62,6.62,0,0,0-.69-.1l-.33.19-.69.13-.74.15c-1.8.41-3.58.82-5.35,1.21a.42.42,0,0,1-.33-.13.53.53,0,0,1-.13-.38,1.45,1.45,0,0,1,.13-.45,6.84,6.84,0,0,1,.41-.83c0-.5.08-.91.13-1.24a3.47,3.47,0,0,1,.18-.74,1.89,1.89,0,0,1,.64-.79,3,3,0,0,1,1-.49A13.59,13.59,0,0,1,341.13,9,9.55,9.55,0,0,1,343.05,8.93Z"/><path class="cls-1" d="M375.15,32.74l1,2c-.19.14-.42.29-.69.46s-.58.34-.95.52-.8.24-1.31.43l-1.75.64c-.5.25-.91.45-1.23.57a2.13,2.13,0,0,1-.66.19,5.65,5.65,0,0,0-1.23.24c-.6.16-1.38.39-2.35.7l-1.65.48c-.58.17-1.18.31-1.8.44l-1.61-.28-1,.37h-1c-.34,0-.66,0-1-.06a3.39,3.39,0,0,1-1.13-.17c-.25-.1-.38-.24-.38-.42l.16-.82-.16-.14a2.41,2.41,0,0,1-1.18-.2c-.2-.13-.3-.42-.3-.89,0-.22,0-.57,0-1.07s.07-1.14.12-1.94a1.53,1.53,0,0,1,.17-.45,1.4,1.4,0,0,0,.17-.49,1.1,1.1,0,0,1-.16-.34,2.12,2.12,0,0,1,0-.24c0-.55.1-1.23.22-2s.25-1.77.42-2.88a15.43,15.43,0,0,0,.52-2.26c0-.63-.06-1.27-.1-1.92q1-3.54,2-7.13a3.44,3.44,0,0,1,.59-1.22,6.93,6.93,0,0,1,1-1.1,1.51,1.51,0,0,0,.34-.24c.08-.13.2-.29.34-.48s.3-.41.49-.65l.5-.26,1-.46.6-.41.78-.55c.65-.33,1.26-.68,1.83-1a4.65,4.65,0,0,1,2.11-.67l1.19-.05,1.15-.08c.34-.06.65-.09.91-.11a4.12,4.12,0,0,0,.45-.08,1.56,1.56,0,0,1,.35,0l.43,0,.74.09.62,0a3.79,3.79,0,0,0,.49,0,3.17,3.17,0,0,1,1.53.75,1.6,1.6,0,0,1,.5,1.17,5.26,5.26,0,0,1-.35,2.19,1.16,1.16,0,0,1-1.11.72,2.35,2.35,0,0,1-1.29-.49c-.49-.31-1.79-.47-3.92-.47l-2.62.42a.91.91,0,0,1-.3.26l-.3.13-.91-.28a2.27,2.27,0,0,0-.93.7,9.08,9.08,0,0,0-1.09,1.58,1.73,1.73,0,0,0-.2.53,4.22,4.22,0,0,0-.06.75q-.47,1.53-.93,3c-.3,1-.54,1.8-.72,2.32s-.29.85-.32,1a3.84,3.84,0,0,0-.13.41,1.2,1.2,0,0,0-.05.38.61.61,0,0,0,.13.43.46.46,0,0,0,.38.15,3.13,3.13,0,0,0,1.13-.71,3.85,3.85,0,0,1,1.34-.79l1.1-.27c.37-.1.76-.22,1.16-.37a11.18,11.18,0,0,1,1.23-.17c.66-.07,1.59-.15,2.79-.25l.73.17,1.37-.22.73.28a3,3,0,0,1,.48.52,5.53,5.53,0,0,1,.4.68,4.32,4.32,0,0,1-.34,1.94,1.07,1.07,0,0,1-1,.66l-1.43-.47-3.49.29-3.51.26A8.4,8.4,0,0,0,360.83,27a2.85,2.85,0,0,0-1.3,2.13,6.28,6.28,0,0,1-.18.85c-.1.39-.23.86-.36,1.43l.18.64a16.24,16.24,0,0,0-.36,1.73,8.83,8.83,0,0,0-.13,1.45.51.51,0,0,0,.07.31.16.16,0,0,0,.19,0c.83,0,1.49-.1,2-.12a8.22,8.22,0,0,1,1.07,0l1.37.08L365,35.4a7.89,7.89,0,0,0,1.13-.34,4.81,4.81,0,0,1,1.57-.3,9.7,9.7,0,0,0,1.51-.12,11.26,11.26,0,0,0,1.47-.35l1.39-.43,1.39-.44a4.39,4.39,0,0,0,.68-.24C374.44,33.07,374.77,32.92,375.15,32.74Z"/><path class="cls-1" d="M384.94,27.12c0,.28.24.66.73,1.14A20.9,20.9,0,0,0,387.89,30c.64.44,1.31.87,2,1.29l2,1.27,1.14.78,1.63,1.12c.45.29.92.57,1.42.86s1,.57,1.59.85L399,37c.47.28,1,.59,1.61.92a1.72,1.72,0,0,1,.81.93,5,5,0,0,1,.33,1.74l-.23.55-.26.11a2,2,0,0,1-.69-.18c-.28-.13-.64-.3-1.07-.53l-1.18-.47-3-1.15a15.26,15.26,0,0,1-2-.86,14.8,14.8,0,0,1-1.67-1,11.35,11.35,0,0,0-1.12-.7c-.46-.26-1-.54-1.63-.84s-1.19-.58-1.66-.85-.84-.5-1.11-.68c-.94-.63-1.7-1.11-2.29-1.43a3.1,3.1,0,0,0-1.22-.49,1.06,1.06,0,0,0-.28.61c-.21.67-.43,1.52-.66,2.54s-.49,2.2-.77,3.55a.83.83,0,0,1-.15.54.57.57,0,0,1-.47.19,2.43,2.43,0,0,1-1.53-.41,1.43,1.43,0,0,1-.52-1.22,16.8,16.8,0,0,1,.17-2.28,17.22,17.22,0,0,1,.56-2.52c.08-.39.15-.73.19-1a6.38,6.38,0,0,0,.06-.84,2,2,0,0,0-1-1.69c-.68-.47-1-.8-1-1a1.9,1.9,0,0,1,.17-.82,1.47,1.47,0,0,1,.51-.57c.57-.29,1.1-.58,1.58-.85a.45.45,0,0,0,.25-.29,2,2,0,0,0,.06-.56v-.92c.06-1.26.1-2.58.13-3.94V20a7.08,7.08,0,0,0-.05-.83,3.54,3.54,0,0,1,0-.72c0-.22,0-.42,0-.6s-.19-.53-.27-.74a1.63,1.63,0,0,1-.12-.59c0-.17,0-.43.05-.8s.06-.62.06-.78,0-.47-.07-.83a7.66,7.66,0,0,1-.06-.81,2.75,2.75,0,0,1,.43-1.47,5.07,5.07,0,0,1,1.31-1.38,7.14,7.14,0,0,1,1.75-.91,5.41,5.41,0,0,1,1.83-.31c.29,0,.73,0,1.31.05s1,.06,1.36.06a9.18,9.18,0,0,1,1.84.47c.4,0,.75.06,1.06.11a7.4,7.4,0,0,1,.76.16l1,.4a3.31,3.31,0,0,0,.52.16l.76.21a2,2,0,0,1,.54.22l.79.29,1,.39a10.64,10.64,0,0,1,1.75.89A14.49,14.49,0,0,1,399,13.79a6.07,6.07,0,0,1,1.24,1.51,2.91,2.91,0,0,1,.42,1.46,5.37,5.37,0,0,1,0,.6,8.94,8.94,0,0,1-.14.89,2.44,2.44,0,0,1-.78,1.33,11.7,11.7,0,0,1-2,1.57,23.52,23.52,0,0,1-2.17,1.25,9.61,9.61,0,0,1-1.87.71,2.85,2.85,0,0,0-.52.36,6.68,6.68,0,0,1-1.09.6c-.56.26-1.31.57-2.26,1-1.73.7-3,1.15-3.68,1.37S384.94,26.86,384.94,27.12Zm-2.73-10.28.94-.58a2,2,0,0,1,1.14-.29c.21,0,.46.19.76.56a1.65,1.65,0,0,1,.46.85,5.21,5.21,0,0,1-.13.68c-.09.35-.23.84-.42,1.45-.4,1.38-.62,2.24-.67,2.59s-.17.89-.34,1.63a5.51,5.51,0,0,0-.21.72.38.38,0,0,0,.09.28.34.34,0,0,0,.25.08l5.34-2.21.45-.12.44-.16.39-.4c1-.53,2-1.09,3.11-1.69A6.11,6.11,0,0,0,395.32,19a2,2,0,0,0,.49-1.23c0-.53-.37-1-1.12-1.56a13,13,0,0,0-3.35-1.47,28.82,28.82,0,0,0-3.45-.91,15.7,15.7,0,0,0-2.82-.28,5.19,5.19,0,0,0-2.51.48,1.53,1.53,0,0,0-.84,1.41,3.42,3.42,0,0,0,.13,1.1C381.93,16.76,382.06,16.87,382.21,16.84Z"/><path class="cls-1" d="M33.35,35.65q-1.05.66-2.61,1.53c-1,.57-2.26,1.21-3.67,1.9s-2.38,1.11-3.35,1.54-1.78.76-2.43,1a15,15,0,0,1-3.05.79,22.49,22.49,0,0,1-3.3.25,6.73,6.73,0,0,1-1.18-.13l-1.38-.31-1.54-.34a6.88,6.88,0,0,0-1.06-.18l-.42-.34-1-.12a3.71,3.71,0,0,1-1.6-.55,12.46,12.46,0,0,1-2-1.44A12.83,12.83,0,0,1,3,37.58a6.51,6.51,0,0,1-.93-1.41l-.94-2.48c-.33-.85-.58-1.53-.74-2a3.19,3.19,0,0,1-.21-1l.39-1.3c-.19-.44-.34-.8-.44-1.09A2,2,0,0,1,0,27.58c0-.16.06-.63.18-1.42s.28-1.88.49-3.28c.16-.27.33-.6.52-1a12.5,12.5,0,0,0,.53-1.3L1.61,20a1.32,1.32,0,0,1,.13-.54,5.9,5.9,0,0,1,.33-.68c.54-.94,1.07-1.89,1.61-2.85S4.76,14,5.3,13.1A14.36,14.36,0,0,1,7.1,11c.74-.73,1.59-1.49,2.54-2.28q.31-.28.78-.75c.3-.3.66-.64,1.08-1A11,11,0,0,0,13,6.05c.57-.39,1.25-.89,2-1.51.23-.08.51-.18.84-.32s.73-.29,1.19-.49a2.2,2.2,0,0,0,.44-.28c.18-.14.38-.28.62-.44a11.61,11.61,0,0,1,2.8-.86,17.59,17.59,0,0,1,3.16-.58,16.34,16.34,0,0,1,2.73.19,4.94,4.94,0,0,1,1.79.59l1.12.17a2.77,2.77,0,0,1,2.07,1.76,10.92,10.92,0,0,1,.67,4.33c0,.88,0,1.59,0,2.11a7.59,7.59,0,0,1-.1,1.09c-.14.57-.3,1.3-.47,2.17s-.41,1.89-.69,3a5.67,5.67,0,0,1-.47,1.52q-.44,1-1.14,2.61a24.24,24.24,0,0,1-1.26,2.58c-.35.58-.64.91-.87,1l-3,.64a4.41,4.41,0,0,1-1.09-.1c-.21-.07-.31-.18-.31-.34a2.71,2.71,0,0,1,.12-.63,2.69,2.69,0,0,0,.12-.61c-.07-.72-.14-1.47-.21-2.22a9.47,9.47,0,0,1,.28-1.58q.28-1.19.84-3,.6-2,1.05-3.18a5,5,0,0,1,.74-1.46,6.85,6.85,0,0,0,1.48-1.48,2.44,2.44,0,0,0,.47-1.29A2.26,2.26,0,0,0,27.41,8,3,3,0,0,0,26,7.08c-.61-.12-1.23-.23-1.85-.33s-1.23-.24-1.84-.39A12.21,12.21,0,0,1,21,6.7l-1,.2a10.54,10.54,0,0,0-4.51,1.79,18,18,0,0,0-4.12,4.07,24.47,24.47,0,0,0-2.59,4.51,18.48,18.48,0,0,0-1.34,4.54c-.09.46-.21,1-.35,1.71S6.74,25,6.49,25.93c.21.58.39,1.11.56,1.59L6.7,30.14a1.46,1.46,0,0,0,.31.59c.21.3.54.74,1,1.31a6.72,6.72,0,0,1,.7,1.16,6.77,6.77,0,0,1,.49,1.5,1.26,1.26,0,0,0,.26.43,1.7,1.7,0,0,0,.44.37c.35.25.69.47,1,.67a10.94,10.94,0,0,0,3.21,2,9.71,9.71,0,0,0,3.62.68q.18,0,1.32-.15c.76-.09,1.81-.25,3.14-.46a5.35,5.35,0,0,1,.93-.4c.38-.14.85-.28,1.38-.43a4.49,4.49,0,0,1,1.41-.82,3.76,3.76,0,0,1,1.29-.25l.44-.49a6.48,6.48,0,0,1,.69-.63,8.94,8.94,0,0,0,1.92-.91A12.17,12.17,0,0,0,32,33,26.69,26.69,0,0,1,33.35,35.65Z"/><path class="cls-1" d="M38.29,22.56a2,2,0,0,1,.27-.89,7.14,7.14,0,0,1,.79-1.19c.49-.57.86-1,1.1-1.35a2.36,2.36,0,0,0,.4-.64l.48-.83c.2-.35.42-.74.68-1.18a4.42,4.42,0,0,0,.81-1.37q.45-1,1-2.79a11.65,11.65,0,0,0,.6-1.1c.21-.44.46-1,.77-1.55a8.52,8.52,0,0,1,.52-1.55c.26-.6.59-1.26,1-2s1-1.38,1.54-2a4.81,4.81,0,0,1,2.31-1.5,3.84,3.84,0,0,1,.92.63.92.92,0,0,1,.31.61A3.85,3.85,0,0,1,51,5.74a4.15,4.15,0,0,0-.79,1.63c0,.15.11.29.32.43a6.32,6.32,0,0,0,1-.69l1.92-1.56a20.94,20.94,0,0,1,1.78-1.23,4.4,4.4,0,0,1,1.49-.59,10.2,10.2,0,0,1,1.15-.26,12.11,12.11,0,0,0,1.58-.37,4.49,4.49,0,0,0,.74-.4A3,3,0,0,1,61,2.35l.53.09A4.94,4.94,0,0,0,63.3,3a13.71,13.71,0,0,0,1.82.27,4.45,4.45,0,0,1,.74.46A8.34,8.34,0,0,0,67,4.4a8.89,8.89,0,0,1,2.61,2,14.13,14.13,0,0,1,2.19,3.33,20.33,20.33,0,0,1,1.39,3.46,11.6,11.6,0,0,1,.47,3.17,21.73,21.73,0,0,1-1.47,8.36,13.92,13.92,0,0,1-4.46,5.82l-.68.57-1,.79v.32a1.5,1.5,0,0,1-.4.62,10.12,10.12,0,0,1-.93.76L62,35.6c-.89.67-1.8,1.32-2.74,1.95a20.66,20.66,0,0,1-3.33,2,13.61,13.61,0,0,1-3,1,4.68,4.68,0,0,1-1.56.71,9.21,9.21,0,0,1-2.26.24,19.74,19.74,0,0,1-3.2-.21,4.4,4.4,0,0,1-1.75-.62,5.49,5.49,0,0,0-.73-.52c-.29-.18-.61-.4-1-.67a3.52,3.52,0,0,1-1.12-1.37,12.28,12.28,0,0,1-1-2.58c-.18-.78-.33-1.55-.43-2.29a14.06,14.06,0,0,1-.16-2.06,4.64,4.64,0,0,1,.17-.95,2.84,2.84,0,0,0,.14-1A7.7,7.7,0,0,0,40,28a5.75,5.75,0,0,1,.39-1.65,5.74,5.74,0,0,0,.38-1.78.92.92,0,0,0-.21-.44,4.21,4.21,0,0,0-.8,1,1.52,1.52,0,0,1-.49.43,1.27,1.27,0,0,1-.53.14.74.74,0,0,1-.61-.26,1.1,1.1,0,0,1-.23-.78,4.13,4.13,0,0,1,.19-1A4.29,4.29,0,0,0,38.29,22.56ZM59.34,8.46a8.45,8.45,0,0,0-1.72.18,12.54,12.54,0,0,0-1.79.48l-3.4,1.24a3.62,3.62,0,0,0-.79.47,7.69,7.69,0,0,0-1,.86l-1.61,1.64a6.63,6.63,0,0,0-1.37,2.74,37.46,37.46,0,0,0-1,5.19c-.23,1.64-.4,3.16-.49,4.57S46,28.55,46,29.74a9,9,0,0,0,1.37,5.46A4.86,4.86,0,0,0,51.52,37a8.84,8.84,0,0,0,2.91-.56,18.91,18.91,0,0,0,3.5-1.71,25.84,25.84,0,0,0,2.84-2,12.63,12.63,0,0,0,2-2,13.76,13.76,0,0,0,1.1-1.7c.51-.87,1.2-2.05,2.09-3.55a17.58,17.58,0,0,0,1.37-3.33,12.59,12.59,0,0,0,.49-3.47c-.14-.58-.3-1.15-.46-1.7l.25-1.24a8.24,8.24,0,0,1-.6-.64l-.17-.37A10.56,10.56,0,0,0,63.93,10,6.91,6.91,0,0,0,59.34,8.46Z"/><path class="cls-1" d="M95.41,34.29a24.25,24.25,0,0,1,1.4,2.65A11.26,11.26,0,0,0,96,38c-.25.39-.53.78-.84,1.19a3.75,3.75,0,0,1-1.09.89,7.06,7.06,0,0,1-1.54.63c-.84.27-1.64.54-2.38.8s-1.43.51-2,.76a8.17,8.17,0,0,1-2.19.53l-2.26.25a10.26,10.26,0,0,1-1.53.22c-.5,0-1,0-1.38,0s-.64,0-.88,0a2.19,2.19,0,0,1-.59-.16l-.62-.35-.58-.32L77.14,42c-.28-.13-.48-.52-.61-1.15a14.75,14.75,0,0,1-.2-2.77,15.53,15.53,0,0,1,.88-4,15.64,15.64,0,0,0,.88-3.69,3.93,3.93,0,0,0-.07-.57,2.9,2.9,0,0,1-.07-.59,22.36,22.36,0,0,1,.68-3.68,20.34,20.34,0,0,0,.69-4,.81.81,0,0,0-.51-.79A.79.79,0,0,1,78.3,20a10.34,10.34,0,0,1,.14-1.56,12.13,12.13,0,0,1,.49-1.9c.19-.55.36-1.12.53-1.68s.32-1.12.49-1.66.33-1.27.51-1.93.32-1.29.43-1.9a14,14,0,0,1,.67-1.56c.3-.61.67-1.31,1.09-2.1.21-.38.39-.74.56-1.08s.34-.69.52-1.08a2.74,2.74,0,0,1,.81-.82,5.83,5.83,0,0,1,1.3-.65c.42-.13.79-.23,1.12-.3a3.78,3.78,0,0,1,.67-.1A1.69,1.69,0,0,1,89,2.24a2.56,2.56,0,0,1,.44,1.63c0,.23,0,.5,0,.79a5.1,5.1,0,0,1-.27,1c-.09.4-.18.75-.26,1l-.19.7c0,.46-.06.88-.11,1.27a9.81,9.81,0,0,1-.17,1.06c-.14.23-.33.51-.56.84-.17.9-.3,1.66-.41,2.26a9.37,9.37,0,0,0-.15,1.28,8.48,8.48,0,0,1-.76,3A8.13,8.13,0,0,0,85.77,20,4.1,4.1,0,0,1,85.59,21a14,14,0,0,1-.52,1.54c-.26.81-.47,1.43-.62,1.88s-.25.71-.29.8c0,.29-.1.63-.16,1s-.15.84-.27,1.36c-.53,2.09-.94,3.83-1.21,5.2a18.67,18.67,0,0,0-.4,3.1,3.44,3.44,0,0,0,.25,1.47.78.78,0,0,0,.73.52,25.18,25.18,0,0,0,4.47-.4,37.51,37.51,0,0,0,4.72-1.19,1.92,1.92,0,0,0,.54-.11l.55-.17a3.91,3.91,0,0,0,.63-.75q.45-.24.81-.48A3.77,3.77,0,0,0,95.41,34.29Z"/><path class="cls-1" d="M148.16,25.91c0,.38.34.9,1,1.54a26.25,26.25,0,0,0,3,2.38c.87.6,1.76,1.18,2.68,1.75l2.76,1.71,1.54,1.06,2.21,1.51c.61.39,1.25.77,1.91,1.16s1.39.76,2.16,1.15c.51.33,1.09.68,1.72,1.07s1.35.79,2.17,1.24a2.35,2.35,0,0,1,1.09,1.25,7,7,0,0,1,.45,2.35l-.31.75-.35.15a2.59,2.59,0,0,1-.93-.25c-.39-.16-.87-.4-1.46-.71l-1.59-.63-4.09-1.56a18.59,18.59,0,0,1-2.7-1.17,19,19,0,0,1-2.24-1.37,16.49,16.49,0,0,0-1.53-.95c-.62-.35-1.35-.72-2.19-1.12s-1.61-.79-2.24-1.16-1.14-.67-1.51-.92c-1.27-.85-2.29-1.49-3.09-1.94a4.32,4.32,0,0,0-1.65-.66,1.45,1.45,0,0,0-.38.84q-.42,1.35-.9,3.42c-.31,1.37-.66,3-1,4.8a1.11,1.11,0,0,1-.21.74.79.79,0,0,1-.63.24,3.36,3.36,0,0,1-2.07-.54,2,2,0,0,1-.7-1.65,22.46,22.46,0,0,1,.22-3.09,25.41,25.41,0,0,1,.76-3.4c.12-.52.2-1,.26-1.4a8,8,0,0,0,.09-1.14A2.72,2.72,0,0,0,139,29.08c-.92-.64-1.38-1.09-1.38-1.36a2.45,2.45,0,0,1,.23-1.11,1.84,1.84,0,0,1,.68-.76c.77-.4,1.48-.79,2.14-1.15a.64.64,0,0,0,.33-.39,2.57,2.57,0,0,0,.09-.77V22.3c.07-1.7.13-3.48.18-5.33v-.63c0-.29,0-.66-.07-1.12a4.63,4.63,0,0,1,0-1c0-.3,0-.57,0-.82s-.27-.71-.37-1a2.19,2.19,0,0,1-.16-.8c0-.23,0-.59.07-1.08s.07-.84.07-1.05a9.6,9.6,0,0,0-.09-1.12,9.65,9.65,0,0,1-.09-1.1,3.85,3.85,0,0,1,.58-2A7.44,7.44,0,0,1,143,3.43a9.71,9.71,0,0,1,2.37-1.22,7.5,7.5,0,0,1,2.47-.42c.4,0,1,0,1.77.07s1.4.07,1.85.07a12.9,12.9,0,0,1,2.49.64c.53,0,1,.09,1.43.16a8.5,8.5,0,0,1,1,.21l1.37.54a3.88,3.88,0,0,0,.7.21l1,.29a2.45,2.45,0,0,1,.72.29l1.07.4,1.39.52A15.86,15.86,0,0,1,165,6.4a18.8,18.8,0,0,1,2.09,1.5,8.46,8.46,0,0,1,1.68,2,3.93,3.93,0,0,1,.57,2,8,8,0,0,1-.06.83,10.71,10.71,0,0,1-.19,1.19,3.3,3.3,0,0,1-1,1.8,15.6,15.6,0,0,1-2.74,2.12,31.63,31.63,0,0,1-2.94,1.69,12.61,12.61,0,0,1-2.53,1,4.32,4.32,0,0,0-.7.49,8,8,0,0,1-1.47.81c-.75.35-1.77.78-3,1.3q-3.51,1.41-5,1.85C148.66,25.24,148.16,25.56,148.16,25.91ZM144.48,12c.45-.27.87-.53,1.26-.79a2.81,2.81,0,0,1,1.55-.39c.28,0,.62.25,1,.76a2.29,2.29,0,0,1,.62,1.14,5.14,5.14,0,0,1-.18.92c-.12.48-.3,1.14-.56,2-.54,1.87-.84,3-.91,3.5s-.22,1.21-.46,2.21a7.79,7.79,0,0,0-.28,1,.5.5,0,0,0,.12.37.49.49,0,0,0,.34.12q7-2.88,7.22-3a5.39,5.39,0,0,0,.6-.16l.59-.21.53-.55q2-1.06,4.21-2.28a7.92,7.92,0,0,0,2-1.7,2.63,2.63,0,0,0,.67-1.67c0-.71-.51-1.41-1.51-2.1a17.52,17.52,0,0,0-4.52-2,36.56,36.56,0,0,0-4.67-1.22,21.14,21.14,0,0,0-3.82-.39,6.86,6.86,0,0,0-3.38.65,2.07,2.07,0,0,0-1.14,1.91,4.78,4.78,0,0,0,.17,1.49C144.11,11.91,144.27,12.06,144.48,12Z"/><path class="cls-2" d="M115.32,1.94V0a21.05,21.05,0,0,0-4.3.45l.4,1.9A18.56,18.56,0,0,1,115.32,1.94Z"/><path class="cls-3" d="M115.32,3.88V1.94a18.56,18.56,0,0,0-3.9.41l.41,1.89A16.66,16.66,0,0,1,115.32,3.88Z"/><path class="cls-4" d="M115.32,5.81V3.88a16.66,16.66,0,0,0-3.49.36l.4,1.89A15,15,0,0,1,115.32,5.81Z"/><path class="cls-5" d="M115.32,7.75V5.81a15,15,0,0,0-3.09.32l.4,1.9A12.59,12.59,0,0,1,115.32,7.75Z"/><path class="cls-6" d="M115.32,9.68V7.75a12.59,12.59,0,0,0-2.69.28l.4,1.89A11.55,11.55,0,0,1,115.32,9.68Z"/><path class="cls-7" d="M115.32,11.62V9.68a11.55,11.55,0,0,0-2.29.24l.41,1.9A8.88,8.88,0,0,1,115.32,11.62Z"/><path class="cls-8" d="M115.32,13.56V11.62a8.88,8.88,0,0,0-1.88.2l.4,1.89A7.21,7.21,0,0,1,115.32,13.56Z"/><path class="cls-9" d="M115.32,15.49V13.56a7.21,7.21,0,0,0-1.48.15l.4,1.89A5.49,5.49,0,0,1,115.32,15.49Z"/><path class="cls-10" d="M115.32,17.43V15.49a5.49,5.49,0,0,0-1.08.11l.4,1.9A3.08,3.08,0,0,1,115.32,17.43Z"/><path class="cls-11" d="M115.05,19.39a1.18,1.18,0,0,1,.27,0V17.43a3.08,3.08,0,0,0-.68.07Z"/><path class="cls-12" d="M107.7,3.56l-.79-1.77A20.49,20.49,0,0,0,103.17,4l1.13,1.57A18.35,18.35,0,0,1,107.7,3.56Z"/><path class="cls-13" d="M108.49,5.33l-.79-1.77a18.35,18.35,0,0,0-3.4,2l1.14,1.56A17.16,17.16,0,0,1,108.49,5.33Z"/><path class="cls-14" d="M109.27,7.1l-.78-1.77a17.16,17.16,0,0,0-3,1.75l1.14,1.57A14.5,14.5,0,0,1,109.27,7.1Z"/><path class="cls-15" d="M110.06,8.87l-.79-1.77a14.5,14.5,0,0,0-2.69,1.55l1.14,1.57A12.85,12.85,0,0,1,110.06,8.87Z"/><path class="cls-16" d="M110.85,10.63l-.79-1.76a12.85,12.85,0,0,0-2.34,1.35l1.14,1.56A11.11,11.11,0,0,1,110.85,10.63Z"/><path class="cls-17" d="M111.64,12.4l-.79-1.77a11.11,11.11,0,0,0-2,1.15L110,13.35A9.57,9.57,0,0,1,111.64,12.4Z"/><path class="cls-18" d="M112.42,14.17l-.78-1.77a9.57,9.57,0,0,0-1.65.95l1.14,1.57A7.49,7.49,0,0,1,112.42,14.17Z"/><path class="cls-19" d="M113.21,15.94l-.79-1.77a7.49,7.49,0,0,0-1.29.75l1.14,1.56A5.11,5.11,0,0,1,113.21,15.94Z"/><path class="cls-20" d="M114,17.71l-.79-1.77a5.11,5.11,0,0,0-.94.54l1.14,1.57A3.12,3.12,0,0,1,114,17.71Z"/><path class="cls-21" d="M114.55,19.62a1,1,0,0,1,.24-.14L114,17.71a3.12,3.12,0,0,0-.59.34Z"/><path class="cls-22" d="M111.42,2.35,111,.46a20,20,0,0,0-4.11,1.33l.79,1.77A19.05,19.05,0,0,1,111.42,2.35Z"/><path class="cls-23" d="M111.83,4.24l-.41-1.89a19.05,19.05,0,0,0-3.72,1.21l.78,1.77A16.84,16.84,0,0,1,111.83,4.24Z"/><path class="cls-24" d="M112.23,6.14l-.4-1.9a16.84,16.84,0,0,0-3.35,1.09l.79,1.76A15.05,15.05,0,0,1,112.23,6.14Z"/><path class="cls-25" d="M112.63,8l-.4-1.89a15.05,15.05,0,0,0-3,1l.79,1.77A12.87,12.87,0,0,1,112.63,8Z"/><path class="cls-26" d="M113,9.92,112.63,8a12.87,12.87,0,0,0-2.57.83l.79,1.77A12.09,12.09,0,0,1,113,9.92Z"/><path class="cls-27" d="M113.44,11.82,113,9.92a12.09,12.09,0,0,0-2.18.71l.78,1.77A8.9,8.9,0,0,1,113.44,11.82Z"/><path class="cls-28" d="M113.84,13.71l-.4-1.89a8.9,8.9,0,0,0-1.81.58l.79,1.77A7.37,7.37,0,0,1,113.84,13.71Z"/><path class="cls-29" d="M114.24,15.61l-.4-1.9a7.37,7.37,0,0,0-1.42.46l.79,1.77A5,5,0,0,1,114.24,15.61Z"/><path class="cls-30" d="M114.64,17.5l-.4-1.89a5,5,0,0,0-1,.33l.79,1.77A3.43,3.43,0,0,1,114.64,17.5Z"/><path class="cls-31" d="M114.78,19.48a1.22,1.22,0,0,1,.27-.09l-.41-1.89a3.43,3.43,0,0,0-.64.21Z"/><path class="cls-32" d="M104.31,5.52,103.17,4A20.79,20.79,0,0,0,100,6.84l1.44,1.3A17.89,17.89,0,0,1,104.31,5.52Z"/><path class="cls-33" d="M105.44,7.09l-1.13-1.57a17.89,17.89,0,0,0-2.92,2.62l1.44,1.29A16.75,16.75,0,0,1,105.44,7.09Z"/><path class="cls-34" d="M106.58,8.65l-1.14-1.56a16.75,16.75,0,0,0-2.61,2.34l1.44,1.3A14.39,14.39,0,0,1,106.58,8.65Z"/><path class="cls-35" d="M107.72,10.22l-1.14-1.57a14.39,14.39,0,0,0-2.31,2.08L105.71,12A12.89,12.89,0,0,1,107.72,10.22Z"/><path class="cls-36" d="M108.86,11.78l-1.14-1.56a12.89,12.89,0,0,0-2,1.8l1.44,1.3A10.54,10.54,0,0,1,108.86,11.78Z"/><path class="cls-37" d="M110,13.35l-1.14-1.57a10.54,10.54,0,0,0-1.71,1.54l1.44,1.3A8.61,8.61,0,0,1,110,13.35Z"/><path class="cls-38" d="M111.13,14.92,110,13.35a8.61,8.61,0,0,0-1.41,1.27L110,15.91A6.52,6.52,0,0,1,111.13,14.92Z"/><path class="cls-39" d="M112.27,16.48l-1.14-1.56a6.52,6.52,0,0,0-1.1,1l1.43,1.3A5.14,5.14,0,0,1,112.27,16.48Z"/><path class="cls-40" d="M113.41,18.05l-1.14-1.57a5.14,5.14,0,0,0-.81.73l1.44,1.29A3.73,3.73,0,0,1,113.41,18.05Z"/><path class="cls-41" d="M114.34,19.8a.91.91,0,0,1,.21-.18l-1.14-1.57a3.73,3.73,0,0,0-.51.45Z"/><path class="cls-42" d="M101.39,8.14,100,6.84a20.69,20.69,0,0,0-2.55,3.5l1.68,1A18.79,18.79,0,0,1,101.39,8.14Z"/><path class="cls-43" d="M102.83,9.44l-1.44-1.3a18.79,18.79,0,0,0-2.3,3.17l1.68,1A16.41,16.41,0,0,1,102.83,9.44Z"/><path class="cls-44" d="M104.27,10.73l-1.44-1.29a16.41,16.41,0,0,0-2.06,2.84l1.67,1A15,15,0,0,1,104.27,10.73Z"/><path class="cls-45" d="M105.71,12l-1.44-1.3a15,15,0,0,0-1.83,2.51l1.68,1A12.26,12.26,0,0,1,105.71,12Z"/><path class="cls-46" d="M107.15,13.32,105.71,12a12.26,12.26,0,0,0-1.59,2.18l1.68,1A10.35,10.35,0,0,1,107.15,13.32Z"/><path class="cls-47" d="M108.59,14.62l-1.44-1.3a10.35,10.35,0,0,0-1.35,1.86l1.67,1A9.08,9.08,0,0,1,108.59,14.62Z"/><path class="cls-48" d="M110,15.91l-1.44-1.29a9.08,9.08,0,0,0-1.12,1.53l1.68,1A6.79,6.79,0,0,1,110,15.91Z"/><path class="cls-49" d="M111.47,17.21,110,15.91a6.79,6.79,0,0,0-.88,1.21l1.68,1A5.26,5.26,0,0,1,111.47,17.21Z"/><path class="cls-50" d="M112.9,18.5l-1.43-1.29a5.26,5.26,0,0,0-.64.87l1.67,1A5.12,5.12,0,0,1,112.9,18.5Z"/><path class="cls-51" d="M114.18,20a1.77,1.77,0,0,1,.16-.22l-1.44-1.3a5.12,5.12,0,0,0-.4.55Z"/><path class="cls-52" d="M99.09,11.31l-1.67-1a20.71,20.71,0,0,0-1.77,3.95l1.84.6A19,19,0,0,1,99.09,11.31Z"/><path class="cls-53" d="M100.77,12.28l-1.68-1a19,19,0,0,0-1.6,3.58l1.85.6A16.33,16.33,0,0,1,100.77,12.28Z"/><path class="cls-54" d="M102.45,13.25l-1.68-1a16.33,16.33,0,0,0-1.43,3.21l1.84.59A13.73,13.73,0,0,1,102.45,13.25Z"/><path class="cls-55" d="M104.12,14.21l-1.67-1a13.73,13.73,0,0,0-1.27,2.83l1.84.6A12.87,12.87,0,0,1,104.12,14.21Z"/><path class="cls-56" d="M105.8,15.18l-1.68-1a12.87,12.87,0,0,0-1.1,2.47l1.84.6A10.9,10.9,0,0,1,105.8,15.18Z"/><path class="cls-57" d="M107.47,16.15l-1.67-1a10.9,10.9,0,0,0-.94,2.1l1.84.6A9.83,9.83,0,0,1,107.47,16.15Z"/><path class="cls-58" d="M109.15,17.12l-1.68-1a9.83,9.83,0,0,0-.77,1.73l1.84.6A7.86,7.86,0,0,1,109.15,17.12Z"/><path class="cls-59" d="M110.83,18.09l-1.68-1a7.86,7.86,0,0,0-.61,1.36l1.85.6A4.83,4.83,0,0,1,110.83,18.09Z"/><path class="cls-60" d="M112.5,19.05l-1.67-1a4.83,4.83,0,0,0-.44,1l1.84.59A3.76,3.76,0,0,1,112.5,19.05Z"/><path class="cls-61" d="M114.07,20.27a1.36,1.36,0,0,1,.11-.25l-1.68-1a3.76,3.76,0,0,0-.27.62Z"/><path class="cls-62" d="M97.5,14.89l-1.84-.6a20.5,20.5,0,0,0-.91,4.23l1.93.2A19.27,19.27,0,0,1,97.5,14.89Z"/><path class="cls-63" d="M99.34,15.49l-1.84-.6a19.27,19.27,0,0,0-.82,3.83l1.93.2A16.81,16.81,0,0,1,99.34,15.49Z"/><path class="cls-64" d="M101.18,16.08l-1.84-.59a16.81,16.81,0,0,0-.73,3.43l1.92.2A15,15,0,0,1,101.18,16.08Z"/><path class="cls-65" d="M103,16.68l-1.84-.6a15,15,0,0,0-.65,3l1.93.21A13.19,13.19,0,0,1,103,16.68Z"/><path class="cls-66" d="M104.86,17.28l-1.84-.6a13.19,13.19,0,0,0-.56,2.65l1.92.2A11.3,11.3,0,0,1,104.86,17.28Z"/><path class="cls-67" d="M106.7,17.88l-1.84-.6a11.3,11.3,0,0,0-.48,2.25l1.93.2A9.24,9.24,0,0,1,106.7,17.88Z"/><path class="cls-68" d="M108.55,18.48l-1.85-.6a9.24,9.24,0,0,0-.39,1.85l1.92.2A7.54,7.54,0,0,1,108.55,18.48Z"/><path class="cls-69" d="M110.39,19.08l-1.84-.6a7.54,7.54,0,0,0-.32,1.45l1.93.21A4.9,4.9,0,0,1,110.39,19.08Z"/><path class="cls-70" d="M112.23,19.67l-1.84-.59a4.9,4.9,0,0,0-.23,1.06l1.93.2A3.2,3.2,0,0,1,112.23,19.67Z"/><path class="cls-71" d="M114,20.54a1.31,1.31,0,0,1,.06-.27l-1.84-.6a3.2,3.2,0,0,0-.14.67Z"/><path class="cls-72" d="M96.68,18.72l-1.92-.2a20.8,20.8,0,0,0,0,4.32l1.93-.2A19,19,0,0,1,96.68,18.72Z"/><path class="cls-73" d="M98.61,18.92l-1.93-.2a19,19,0,0,0,0,3.92l1.93-.2A16.57,16.57,0,0,1,98.61,18.92Z"/><path class="cls-74" d="M100.53,19.12l-1.92-.2a16.57,16.57,0,0,0,0,3.52l1.92-.21A15.39,15.39,0,0,1,100.53,19.12Z"/><path class="cls-75" d="M102.46,19.33l-1.93-.21a15.39,15.39,0,0,0,0,3.11l1.93-.2A12.82,12.82,0,0,1,102.46,19.33Z"/><path class="cls-76" d="M104.39,19.53l-1.93-.2a12.82,12.82,0,0,0,0,2.7l1.92-.2A11.06,11.06,0,0,1,104.39,19.53Z"/><path class="cls-77" d="M106.31,19.73l-1.92-.2a11.06,11.06,0,0,0,0,2.3l1.93-.2A8.62,8.62,0,0,1,106.31,19.73Z"/><path class="cls-78" d="M108.24,19.93l-1.93-.2a8.62,8.62,0,0,0,0,1.9l1.92-.21A6.76,6.76,0,0,1,108.24,19.93Z"/><path class="cls-79" d="M110.16,20.14l-1.92-.21a6.76,6.76,0,0,0,0,1.49l1.93-.2A4.87,4.87,0,0,1,110.16,20.14Z"/><path class="cls-80" d="M112.09,20.34l-1.93-.2a4.87,4.87,0,0,0,0,1.08l1.93-.2A2.58,2.58,0,0,1,112.09,20.34Z"/><path class="cls-81" d="M114,20.82a1.31,1.31,0,0,1,0-.28l-1.92-.2a2.58,2.58,0,0,0,0,.68Z"/><path class="cls-82" d="M96.68,22.64l-1.92.2a20.9,20.9,0,0,0,.89,4.23l1.84-.6A19.16,19.16,0,0,1,96.68,22.64Z"/><path class="cls-83" d="M98.61,22.43l-1.93.21a19.16,19.16,0,0,0,.81,3.83l1.85-.6A16,16,0,0,1,98.61,22.43Z"/><path class="cls-84" d="M100.53,22.23l-1.92.2a16,16,0,0,0,.73,3.44l1.84-.6A15.06,15.06,0,0,1,100.53,22.23Z"/><path class="cls-85" d="M102.46,22l-1.93.2a15.06,15.06,0,0,0,.65,3l1.84-.59A13.56,13.56,0,0,1,102.46,22Z"/><path class="cls-86" d="M104.39,21.83l-1.93.2a13.56,13.56,0,0,0,.56,2.65l1.84-.6A11.1,11.1,0,0,1,104.39,21.83Z"/><path class="cls-87" d="M106.31,21.63l-1.92.2a11.1,11.1,0,0,0,.47,2.25l1.84-.6A9.35,9.35,0,0,1,106.31,21.63Z"/><path class="cls-88" d="M108.24,21.42l-1.93.21a9.35,9.35,0,0,0,.39,1.85l1.84-.6A6.87,6.87,0,0,1,108.24,21.42Z"/><path class="cls-89" d="M110.16,21.22l-1.92.2a6.87,6.87,0,0,0,.3,1.46l1.85-.6A5.26,5.26,0,0,1,110.16,21.22Z"/><path class="cls-90" d="M112.09,21l-1.93.2a5.26,5.26,0,0,0,.23,1.06l1.84-.6A2.87,2.87,0,0,1,112.09,21Z"/><path class="cls-91" d="M114.07,21.08a1.1,1.1,0,0,1-.06-.26l-1.92.2a2.87,2.87,0,0,0,.14.66Z"/><path class="cls-92" d="M97.5,26.47l-1.84.6A20.35,20.35,0,0,0,97.41,31l1.68-1A18.64,18.64,0,0,1,97.5,26.47Z"/><path class="cls-93" d="M99.34,25.87l-1.84.6a18.64,18.64,0,0,0,1.59,3.58l1.68-1A16.59,16.59,0,0,1,99.34,25.87Z"/><path class="cls-94" d="M101.18,25.27l-1.84.6a16.59,16.59,0,0,0,1.43,3.21l1.67-1A14.85,14.85,0,0,1,101.18,25.27Z"/><path class="cls-95" d="M103,24.67l-1.84.6a14.85,14.85,0,0,0,1.26,2.84l1.68-1A13.53,13.53,0,0,1,103,24.67Z"/><path class="cls-96" d="M104.86,24.08l-1.84.59a13.53,13.53,0,0,0,1.1,2.48l1.68-1A11.69,11.69,0,0,1,104.86,24.08Z"/><path class="cls-97" d="M106.7,23.48l-1.84.6a11.69,11.69,0,0,0,.94,2.1l1.67-1A9.29,9.29,0,0,1,106.7,23.48Z"/><path class="cls-98" d="M108.55,22.88l-1.85.6a9.29,9.29,0,0,0,.77,1.73l1.68-1A6.93,6.93,0,0,1,108.55,22.88Z"/><path class="cls-99" d="M110.39,22.28l-1.84.6a6.93,6.93,0,0,0,.6,1.36l1.68-1A4.89,4.89,0,0,1,110.39,22.28Z"/><path class="cls-100" d="M112.23,21.68l-1.84.6a4.89,4.89,0,0,0,.44,1l1.67-1A3.14,3.14,0,0,1,112.23,21.68Z"/><path class="cls-101" d="M114.18,21.34a2,2,0,0,1-.11-.26l-1.84.6a3.14,3.14,0,0,0,.27.62Z"/><path class="cls-102" d="M99.09,30.05l-1.67,1a21.26,21.26,0,0,0,2.53,3.5l1.44-1.3A19.32,19.32,0,0,1,99.09,30.05Z"/><path class="cls-103" d="M100.77,29.08l-1.68,1a18.9,18.9,0,0,0,2.3,3.17l1.44-1.3A16.51,16.51,0,0,1,100.77,29.08Z"/><path class="cls-104" d="M102.45,28.11l-1.68,1a16.51,16.51,0,0,0,2.06,2.84l1.44-1.29A15,15,0,0,1,102.45,28.11Z"/><path class="cls-105" d="M104.12,27.14l-1.67,1a15,15,0,0,0,1.82,2.52l1.44-1.3A13.06,13.06,0,0,1,104.12,27.14Z"/><path class="cls-106" d="M105.8,26.18l-1.68,1a13.06,13.06,0,0,0,1.59,2.19L107.15,28A10.92,10.92,0,0,1,105.8,26.18Z"/><path class="cls-107" d="M107.47,25.21l-1.67,1A10.92,10.92,0,0,0,107.15,28l1.44-1.3A9.12,9.12,0,0,1,107.47,25.21Z"/><path class="cls-108" d="M109.15,24.24l-1.68,1a9.12,9.12,0,0,0,1.12,1.53L110,25.45A7.65,7.65,0,0,1,109.15,24.24Z"/><path class="cls-109" d="M110.83,23.27l-1.68,1a7.65,7.65,0,0,0,.88,1.21l1.43-1.3A5.18,5.18,0,0,1,110.83,23.27Z"/><path class="cls-110" d="M112.5,22.3l-1.67,1a5.18,5.18,0,0,0,.63.88l1.44-1.3A3.23,3.23,0,0,1,112.5,22.3Z"/><path class="cls-111" d="M114.34,21.56a1.77,1.77,0,0,1-.16-.22l-1.68,1a3.23,3.23,0,0,0,.4.55Z"/><path class="cls-112" d="M101.39,33.22,100,34.51a20.38,20.38,0,0,0,3.21,2.9l1.13-1.57A18.84,18.84,0,0,1,101.39,33.22Z"/><path class="cls-113" d="M102.83,31.92l-1.44,1.3a18.84,18.84,0,0,0,2.91,2.62l1.14-1.57A16.46,16.46,0,0,1,102.83,31.92Z"/><path class="cls-114" d="M104.27,30.63l-1.44,1.29a16.46,16.46,0,0,0,2.61,2.35l1.14-1.56A15.57,15.57,0,0,1,104.27,30.63Z"/><path class="cls-115" d="M105.71,29.33l-1.44,1.3a15.57,15.57,0,0,0,2.31,2.08l1.14-1.57A12.65,12.65,0,0,1,105.71,29.33Z"/><path class="cls-116" d="M107.15,28l-1.44,1.29a12.65,12.65,0,0,0,2,1.81l1.14-1.56A11.28,11.28,0,0,1,107.15,28Z"/><path class="cls-117" d="M108.59,26.74,107.15,28a11.28,11.28,0,0,0,1.71,1.54L110,28A9.29,9.29,0,0,1,108.59,26.74Z"/><path class="cls-118" d="M110,25.44l-1.44,1.3A9.29,9.29,0,0,0,110,28l1.14-1.57A7.37,7.37,0,0,1,110,25.44Z"/><path class="cls-119" d="M111.47,24.15,110,25.44a7.37,7.37,0,0,0,1.1,1l1.14-1.56A5,5,0,0,1,111.47,24.15Z"/><path class="cls-120" d="M112.9,22.85l-1.43,1.3a5,5,0,0,0,.8.73l1.14-1.57A3.12,3.12,0,0,1,112.9,22.85Z"/><path class="cls-121" d="M114.55,21.74a1.18,1.18,0,0,1-.21-.18l-1.44,1.29a3.12,3.12,0,0,0,.51.46Z"/><path class="cls-122" d="M104.31,35.84l-1.14,1.56a20.42,20.42,0,0,0,3.74,2.17l.79-1.77A18.63,18.63,0,0,1,104.31,35.84Z"/><path class="cls-123" d="M105.44,34.27l-1.13,1.57a18.63,18.63,0,0,0,3.39,2l.78-1.77A16.64,16.64,0,0,1,105.44,34.27Z"/><path class="cls-124" d="M106.58,32.71l-1.14,1.56a16.64,16.64,0,0,0,3,1.76l.79-1.77A14.85,14.85,0,0,1,106.58,32.71Z"/><path class="cls-125" d="M107.72,31.14l-1.14,1.57a14.85,14.85,0,0,0,2.69,1.55l.79-1.77A13.12,13.12,0,0,1,107.72,31.14Z"/><path class="cls-126" d="M108.86,29.57l-1.14,1.57a13.12,13.12,0,0,0,2.34,1.35l.79-1.77A10.48,10.48,0,0,1,108.86,29.57Z"/><path class="cls-127" d="M110,28l-1.14,1.56a10.48,10.48,0,0,0,2,1.15l.78-1.76A9.6,9.6,0,0,1,110,28Z"/><path class="cls-128" d="M111.13,26.44,110,28a9.6,9.6,0,0,0,1.63.95l.79-1.77A7.33,7.33,0,0,1,111.13,26.44Z"/><path class="cls-129" d="M112.27,24.87l-1.14,1.57a7.33,7.33,0,0,0,1.29.75l.79-1.77A5.62,5.62,0,0,1,112.27,24.87Z"/><path class="cls-130" d="M113.41,23.31l-1.14,1.56a5.62,5.62,0,0,0,.94.55l.79-1.77A3.47,3.47,0,0,1,113.41,23.31Z"/><path class="cls-131" d="M114.78,21.88a1.09,1.09,0,0,1-.23-.14l-1.14,1.57a3.47,3.47,0,0,0,.59.34Z"/><path class="cls-132" d="M107.7,37.8l-.79,1.77A21,21,0,0,0,111,40.91l.4-1.9A19.22,19.22,0,0,1,107.7,37.8Z"/><path class="cls-133" d="M108.49,36l-.79,1.77A19.22,19.22,0,0,0,111.42,39l.41-1.89A16.5,16.5,0,0,1,108.49,36Z"/><path class="cls-134" d="M109.27,34.26,108.49,36a16.5,16.5,0,0,0,3.34,1.09l.4-1.9A14.81,14.81,0,0,1,109.27,34.26Z"/><path class="cls-135" d="M110.06,32.49l-.79,1.77a14.81,14.81,0,0,0,3,1l.4-1.89A12.87,12.87,0,0,1,110.06,32.49Z"/><path class="cls-136" d="M110.85,30.72l-.79,1.77a12.87,12.87,0,0,0,2.57.84l.4-1.9A10.47,10.47,0,0,1,110.85,30.72Z"/><path class="cls-137" d="M111.64,29l-.79,1.77a10.47,10.47,0,0,0,2.18.71l.41-1.89A8.61,8.61,0,0,1,111.64,29Z"/><path class="cls-138" d="M112.42,27.19,111.64,29a8.61,8.61,0,0,0,1.8.59l.4-1.89A8.39,8.39,0,0,1,112.42,27.19Z"/><path class="cls-139" d="M113.21,25.42l-.79,1.77a8.39,8.39,0,0,0,1.42.46l.4-1.9A4.94,4.94,0,0,1,113.21,25.42Z"/><path class="cls-140" d="M114,23.65l-.79,1.77a4.94,4.94,0,0,0,1,.33l.4-1.89A4,4,0,0,1,114,23.65Z"/><path class="cls-141" d="M115.05,22a.79.79,0,0,1-.26-.08L114,23.65a4,4,0,0,0,.64.21Z"/><path class="cls-142" d="M111.42,39,111,40.9a20.42,20.42,0,0,0,4.3.46V39.42A18.6,18.6,0,0,1,111.42,39Z"/><path class="cls-143" d="M111.83,37.11l-.41,1.9a18.6,18.6,0,0,0,3.9.41V37.48A16.7,16.7,0,0,1,111.83,37.11Z"/><path class="cls-144" d="M112.23,35.22l-.4,1.89a16.7,16.7,0,0,0,3.49.37V35.55A14.9,14.9,0,0,1,112.23,35.22Z"/><path class="cls-145" d="M112.63,33.33l-.4,1.89a14.9,14.9,0,0,0,3.09.33V33.61A13,13,0,0,1,112.63,33.33Z"/><path class="cls-146" d="M113,31.43l-.4,1.9a13,13,0,0,0,2.69.28V31.68A11.3,11.3,0,0,1,113,31.43Z"/><path class="cls-147" d="M113.44,29.54,113,31.43a11.3,11.3,0,0,0,2.29.25V29.74A9.32,9.32,0,0,1,113.44,29.54Z"/><path class="cls-148" d="M113.84,27.65l-.4,1.89a9.32,9.32,0,0,0,1.88.2V27.8A7.51,7.51,0,0,1,113.84,27.65Z"/><path class="cls-149" d="M114.24,25.75l-.4,1.9a7.51,7.51,0,0,0,1.48.15V25.87A5,5,0,0,1,114.24,25.75Z"/><path class="cls-150" d="M114.64,23.86l-.4,1.89a5,5,0,0,0,1.08.12V23.93A3.21,3.21,0,0,1,114.64,23.86Z"/><path class="cls-151" d="M115.32,22a1.24,1.24,0,0,1-.27,0l-.41,1.9a3.21,3.21,0,0,0,.68.07Z"/><path class="cls-152" d="M115.32,39.42v1.93a21,21,0,0,0,4.3-.44l-.4-1.9A18.56,18.56,0,0,1,115.32,39.42Z"/><path class="cls-153" d="M115.32,37.48v1.94a18.56,18.56,0,0,0,3.9-.41l-.41-1.89A16.66,16.66,0,0,1,115.32,37.48Z"/><path class="cls-154" d="M115.32,35.55v1.93a16.66,16.66,0,0,0,3.49-.36l-.4-1.9A15,15,0,0,1,115.32,35.55Z"/><path class="cls-155" d="M115.32,33.61v1.94a15,15,0,0,0,3.09-.33l-.4-1.89A13.27,13.27,0,0,1,115.32,33.61Z"/><path class="cls-156" d="M115.32,31.67v1.94a13.27,13.27,0,0,0,2.69-.28l-.4-1.9A10.85,10.85,0,0,1,115.32,31.67Z"/><path class="cls-157" d="M115.32,29.74v1.93a10.85,10.85,0,0,0,2.29-.24l-.41-1.89A8.88,8.88,0,0,1,115.32,29.74Z"/><path class="cls-158" d="M115.32,27.8v1.94a8.88,8.88,0,0,0,1.88-.2l-.4-1.89A7.21,7.21,0,0,1,115.32,27.8Z"/><path class="cls-159" d="M115.32,25.86V27.8a7.21,7.21,0,0,0,1.48-.15l-.4-1.9A4.83,4.83,0,0,1,115.32,25.86Z"/><path class="cls-160" d="M115.32,23.93v1.93a4.83,4.83,0,0,0,1.08-.11l-.4-1.89A3.82,3.82,0,0,1,115.32,23.93Z"/><path class="cls-161" d="M115.59,22a1.24,1.24,0,0,1-.27,0v1.94a3.82,3.82,0,0,0,.68-.07Z"/><path class="cls-162" d="M119.22,39l.4,1.89a21.47,21.47,0,0,0,4.11-1.33l-.79-1.77A19.05,19.05,0,0,1,119.22,39Z"/><path class="cls-163" d="M118.81,37.11l.41,1.9a19.05,19.05,0,0,0,3.72-1.21L122.16,36A16.82,16.82,0,0,1,118.81,37.11Z"/><path class="cls-164" d="M118.41,35.22l.4,1.89A16.82,16.82,0,0,0,122.16,36l-.79-1.77A14.44,14.44,0,0,1,118.41,35.22Z"/><path class="cls-165" d="M118,33.33l.4,1.89a14.44,14.44,0,0,0,3-1l-.79-1.77A13.57,13.57,0,0,1,118,33.33Z"/><path class="cls-166" d="M117.61,31.43l.4,1.9a13.57,13.57,0,0,0,2.57-.84l-.79-1.77A10.69,10.69,0,0,1,117.61,31.43Z"/><path class="cls-167" d="M117.2,29.54l.41,1.89a10.69,10.69,0,0,0,2.18-.71L119,29A9.47,9.47,0,0,1,117.2,29.54Z"/><path class="cls-168" d="M116.8,27.65l.4,1.89A9.47,9.47,0,0,0,119,29l-.78-1.77A8.13,8.13,0,0,1,116.8,27.65Z"/><path class="cls-169" d="M116.4,25.75l.4,1.9a8.13,8.13,0,0,0,1.42-.46l-.79-1.77A5.89,5.89,0,0,1,116.4,25.75Z"/><path class="cls-170" d="M116,23.86l.4,1.89a5.89,5.89,0,0,0,1-.33l-.79-1.77A3.43,3.43,0,0,1,116,23.86Z"/><path class="cls-171" d="M115.85,21.88a1.12,1.12,0,0,1-.26.08l.41,1.9a3.43,3.43,0,0,0,.64-.21Z"/><path class="cls-172" d="M122.94,37.8l.79,1.77a20.49,20.49,0,0,0,3.74-2.16l-1.13-1.57A18.94,18.94,0,0,1,122.94,37.8Z"/><path class="cls-173" d="M122.15,36l.79,1.77a18.94,18.94,0,0,0,3.4-2l-1.14-1.57A16.61,16.61,0,0,1,122.15,36Z"/><path class="cls-174" d="M121.37,34.26l.78,1.77a16.61,16.61,0,0,0,3-1.76l-1.14-1.56A15.18,15.18,0,0,1,121.37,34.26Z"/><path class="cls-175" d="M120.58,32.49l.79,1.77a15.18,15.18,0,0,0,2.69-1.55l-1.14-1.57A12.85,12.85,0,0,1,120.58,32.49Z"/><path class="cls-176" d="M119.79,30.72l.79,1.77a12.85,12.85,0,0,0,2.34-1.35l-1.14-1.56A11.07,11.07,0,0,1,119.79,30.72Z"/><path class="cls-177" d="M119,29l.79,1.77a11.07,11.07,0,0,0,2-1.14L120.65,28A9.53,9.53,0,0,1,119,29Z"/><path class="cls-178" d="M118.22,27.19,119,29a9.53,9.53,0,0,0,1.65-.94l-1.14-1.57A7.49,7.49,0,0,1,118.22,27.19Z"/><path class="cls-179" d="M117.43,25.42l.79,1.77a7.49,7.49,0,0,0,1.29-.75l-1.14-1.56A5.75,5.75,0,0,1,117.43,25.42Z"/><path class="cls-180" d="M116.64,23.65l.79,1.77a5.75,5.75,0,0,0,.94-.54l-1.14-1.57A3.78,3.78,0,0,1,116.64,23.65Z"/><path class="cls-181" d="M116.09,21.74a1,1,0,0,1-.24.14l.79,1.77a3.78,3.78,0,0,0,.59-.34Z"/><path class="cls-182" d="M126.33,35.84l1.14,1.56a20.68,20.68,0,0,0,3.22-2.88l-1.44-1.3A19.33,19.33,0,0,1,126.33,35.84Z"/><path class="cls-183" d="M125.2,34.27l1.13,1.57a19.33,19.33,0,0,0,2.92-2.62l-1.44-1.3A16.31,16.31,0,0,1,125.2,34.27Z"/><path class="cls-184" d="M124.06,32.71l1.14,1.56a16.31,16.31,0,0,0,2.61-2.35l-1.44-1.29A14.88,14.88,0,0,1,124.06,32.71Z"/><path class="cls-185" d="M122.92,31.14l1.14,1.57a14.88,14.88,0,0,0,2.31-2.08l-1.44-1.3A12.46,12.46,0,0,1,122.92,31.14Z"/><path class="cls-186" d="M121.78,29.57l1.14,1.57a12.46,12.46,0,0,0,2-1.81L123.49,28A10.48,10.48,0,0,1,121.78,29.57Z"/><path class="cls-187" d="M120.64,28l1.14,1.56A10.48,10.48,0,0,0,123.49,28l-1.44-1.3A8.61,8.61,0,0,1,120.64,28Z"/><path class="cls-188" d="M119.51,26.44,120.64,28a8.61,8.61,0,0,0,1.41-1.27l-1.44-1.29A7,7,0,0,1,119.51,26.44Z"/><path class="cls-189" d="M118.37,24.87l1.14,1.57a7,7,0,0,0,1.1-1l-1.44-1.3A4.61,4.61,0,0,1,118.37,24.87Z"/><path class="cls-190" d="M117.23,23.31l1.14,1.56a4.61,4.61,0,0,0,.8-.72l-1.43-1.3A3.21,3.21,0,0,1,117.23,23.31Z"/><path class="cls-191" d="M116.3,21.56a.91.91,0,0,1-.21.18l1.14,1.57a3.21,3.21,0,0,0,.51-.46Z"/><path class="cls-192" d="M129.25,33.22l1.43,1.29A20.62,20.62,0,0,0,133.23,31l-1.68-1A19.2,19.2,0,0,1,129.25,33.22Z"/><path class="cls-193" d="M127.81,31.92l1.44,1.3a19.2,19.2,0,0,0,2.3-3.17l-1.68-1A16.41,16.41,0,0,1,127.81,31.92Z"/><path class="cls-194" d="M126.37,30.63l1.44,1.29a16.41,16.41,0,0,0,2.06-2.84l-1.67-1A14.7,14.7,0,0,1,126.37,30.63Z"/><path class="cls-195" d="M124.93,29.33l1.44,1.3a14.7,14.7,0,0,0,1.83-2.52l-1.68-1A12.64,12.64,0,0,1,124.93,29.33Z"/><path class="cls-196" d="M123.49,28l1.44,1.29a12.64,12.64,0,0,0,1.59-2.18l-1.68-1A11.27,11.27,0,0,1,123.49,28Z"/><path class="cls-197" d="M122.05,26.74l1.44,1.3a11.27,11.27,0,0,0,1.35-1.86l-1.67-1A9.67,9.67,0,0,1,122.05,26.74Z"/><path class="cls-198" d="M120.61,25.44l1.44,1.3a9.67,9.67,0,0,0,1.12-1.53l-1.68-1A7.25,7.25,0,0,1,120.61,25.44Z"/><path class="cls-199" d="M119.17,24.15l1.44,1.29a7.25,7.25,0,0,0,.88-1.2l-1.68-1A5.33,5.33,0,0,1,119.17,24.15Z"/><path class="cls-200" d="M117.74,22.85l1.43,1.3a5.33,5.33,0,0,0,.64-.88l-1.67-1A3.69,3.69,0,0,1,117.74,22.85Z"/><path class="cls-201" d="M116.46,21.34c0,.07-.1.15-.16.22l1.44,1.29a3.69,3.69,0,0,0,.4-.55Z"/><path class="cls-202" d="M131.55,30.05l1.67,1A20.71,20.71,0,0,0,135,27.07l-1.85-.6A18.3,18.3,0,0,1,131.55,30.05Z"/><path class="cls-203" d="M129.87,29.08l1.68,1a18.3,18.3,0,0,0,1.59-3.58l-1.84-.6A16.33,16.33,0,0,1,129.87,29.08Z"/><path class="cls-204" d="M128.19,28.11l1.68,1a16.33,16.33,0,0,0,1.43-3.21l-1.84-.6A14.62,14.62,0,0,1,128.19,28.11Z"/><path class="cls-205" d="M126.52,27.14l1.67,1a14.62,14.62,0,0,0,1.27-2.84l-1.84-.59A13.14,13.14,0,0,1,126.52,27.14Z"/><path class="cls-206" d="M124.84,26.18l1.68,1a13.14,13.14,0,0,0,1.1-2.46l-1.84-.6A11.86,11.86,0,0,1,124.84,26.18Z"/><path class="cls-207" d="M123.16,25.21l1.68,1a11.86,11.86,0,0,0,.94-2.1l-1.84-.6A9.2,9.2,0,0,1,123.16,25.21Z"/><path class="cls-208" d="M121.49,24.24l1.67,1a9.2,9.2,0,0,0,.78-1.73l-1.85-.6A7.42,7.42,0,0,1,121.49,24.24Z"/><path class="cls-209" d="M119.81,23.27l1.68,1a7.42,7.42,0,0,0,.6-1.36l-1.84-.6A4.83,4.83,0,0,1,119.81,23.27Z"/><path class="cls-210" d="M118.13,22.3l1.68,1a4.83,4.83,0,0,0,.44-1l-1.84-.6A2.88,2.88,0,0,1,118.13,22.3Z"/><path class="cls-211" d="M116.57,21.08c0,.09-.07.17-.11.26l1.67,1a2.88,2.88,0,0,0,.28-.62Z"/><path class="cls-212" d="M133.14,26.47l1.84.6a19.84,19.84,0,0,0,.9-4.23l-1.92-.2A19.27,19.27,0,0,1,133.14,26.47Z"/><path class="cls-213" d="M131.3,25.87l1.84.6a19.27,19.27,0,0,0,.82-3.83l-1.93-.2A16.81,16.81,0,0,1,131.3,25.87Z"/><path class="cls-214" d="M129.46,25.27l1.84.6a16.81,16.81,0,0,0,.73-3.43l-1.92-.21A14.87,14.87,0,0,1,129.46,25.27Z"/><path class="cls-215" d="M127.62,24.67l1.84.6a14.87,14.87,0,0,0,.65-3l-1.93-.2A13,13,0,0,1,127.62,24.67Z"/><path class="cls-216" d="M125.78,24.08l1.84.59a13,13,0,0,0,.56-2.64l-1.92-.2A11.3,11.3,0,0,1,125.78,24.08Z"/><path class="cls-217" d="M123.93,23.48l1.85.6a11.3,11.3,0,0,0,.48-2.25l-1.93-.2A9.58,9.58,0,0,1,123.93,23.48Z"/><path class="cls-218" d="M122.09,22.88l1.84.6a9.58,9.58,0,0,0,.4-1.85l-1.93-.21A6.79,6.79,0,0,1,122.09,22.88Z"/><path class="cls-219" d="M120.25,22.28l1.84.6a6.79,6.79,0,0,0,.31-1.46l-1.92-.2A5,5,0,0,1,120.25,22.28Z"/><path class="cls-220" d="M118.41,21.68l1.84.6a5,5,0,0,0,.23-1.06l-1.93-.2A3.11,3.11,0,0,1,118.41,21.68Z"/><path class="cls-221" d="M116.63,20.82a1.1,1.1,0,0,1-.06.26l1.84.6a3.11,3.11,0,0,0,.14-.66Z"/><path class="cls-222" d="M134,22.64l1.92.2a20.79,20.79,0,0,0,0-4.32l-1.92.2A19,19,0,0,1,134,22.64Z"/><path class="cls-223" d="M132,22.43l1.93.21a19,19,0,0,0,0-3.92l-1.93.2A16.47,16.47,0,0,1,132,22.43Z"/><path class="cls-224" d="M130.1,22.23l1.93.2a16.47,16.47,0,0,0,0-3.51l-1.92.2A14.7,14.7,0,0,1,130.1,22.23Z"/><path class="cls-225" d="M128.18,22l1.92.2a14.7,14.7,0,0,0,0-3.11l-1.93.21A12.82,12.82,0,0,1,128.18,22Z"/><path class="cls-226" d="M126.25,21.83l1.93.2a12.82,12.82,0,0,0,0-2.7l-1.92.2A11.06,11.06,0,0,1,126.25,21.83Z"/><path class="cls-227" d="M124.33,21.63l1.92.2a11.06,11.06,0,0,0,0-2.3l-1.93.2A9.28,9.28,0,0,1,124.33,21.63Z"/><path class="cls-228" d="M122.4,21.42l1.93.21a9.28,9.28,0,0,0,0-1.9l-1.93.2A6.19,6.19,0,0,1,122.4,21.42Z"/><path class="cls-229" d="M120.48,21.22l1.92.2a6.19,6.19,0,0,0,0-1.49l-1.92.21A4.87,4.87,0,0,1,120.48,21.22Z"/><path class="cls-230" d="M118.55,21l1.93.2a4.87,4.87,0,0,0,0-1.08l-1.93.2A2.58,2.58,0,0,1,118.55,21Z"/><path class="cls-231" d="M116.63,20.54a1.31,1.31,0,0,1,0,.28l1.92.2a2.58,2.58,0,0,0,0-.68Z"/><path class="cls-232" d="M134,18.72l1.92-.2a20.9,20.9,0,0,0-.89-4.23l-1.85.6A18.49,18.49,0,0,1,134,18.72Z"/><path class="cls-233" d="M132,18.92l1.93-.2a18.49,18.49,0,0,0-.82-3.83l-1.84.6A16.72,16.72,0,0,1,132,18.92Z"/><path class="cls-234" d="M130.1,19.12l1.93-.2a16.72,16.72,0,0,0-.73-3.43l-1.84.59A14.53,14.53,0,0,1,130.1,19.12Z"/><path class="cls-235" d="M128.18,19.33l1.92-.21a14.53,14.53,0,0,0-.64-3l-1.84.6A13.56,13.56,0,0,1,128.18,19.33Z"/><path class="cls-236" d="M126.25,19.53l1.93-.2a13.56,13.56,0,0,0-.56-2.65l-1.84.6A11.1,11.1,0,0,1,126.25,19.53Z"/><path class="cls-237" d="M124.33,19.73l1.92-.2a11.1,11.1,0,0,0-.47-2.25l-1.84.6A9.35,9.35,0,0,1,124.33,19.73Z"/><path class="cls-238" d="M122.4,19.93l1.93-.2a9.35,9.35,0,0,0-.39-1.85l-1.85.6A6.34,6.34,0,0,1,122.4,19.93Z"/><path class="cls-239" d="M120.48,20.14l1.92-.21a6.34,6.34,0,0,0-.31-1.45l-1.84.6A5.11,5.11,0,0,1,120.48,20.14Z"/><path class="cls-240" d="M118.55,20.34l1.93-.2a5.11,5.11,0,0,0-.23-1.06l-1.84.59A3.07,3.07,0,0,1,118.55,20.34Z"/><path class="cls-241" d="M116.57,20.27a1.31,1.31,0,0,1,.06.27l1.92-.2a3.07,3.07,0,0,0-.14-.67Z"/><path class="cls-242" d="M133.14,14.89l1.84-.6a20.35,20.35,0,0,0-1.75-3.95l-1.68,1A18.64,18.64,0,0,1,133.14,14.89Z"/><path class="cls-243" d="M131.3,15.49l1.84-.6a18.64,18.64,0,0,0-1.59-3.58l-1.68,1A16.32,16.32,0,0,1,131.3,15.49Z"/><path class="cls-244" d="M129.46,16.08l1.84-.59a16.32,16.32,0,0,0-1.43-3.21l-1.67,1A15.42,15.42,0,0,1,129.46,16.08Z"/><path class="cls-245" d="M127.62,16.68l1.84-.6a15.42,15.42,0,0,0-1.26-2.84l-1.68,1A13.75,13.75,0,0,1,127.62,16.68Z"/><path class="cls-246" d="M125.78,17.28l1.84-.6a13.75,13.75,0,0,0-1.1-2.47l-1.68,1A11.38,11.38,0,0,1,125.78,17.28Z"/><path class="cls-247" d="M123.93,17.88l1.85-.6a11.38,11.38,0,0,0-.94-2.1l-1.67,1A8.65,8.65,0,0,1,123.93,17.88Z"/><path class="cls-248" d="M122.09,18.48l1.84-.6a8.65,8.65,0,0,0-.76-1.73l-1.68,1A6.68,6.68,0,0,1,122.09,18.48Z"/><path class="cls-249" d="M120.25,19.08l1.84-.6a6.68,6.68,0,0,0-.6-1.36l-1.68,1A4.74,4.74,0,0,1,120.25,19.08Z"/><path class="cls-250" d="M118.41,19.67l1.84-.59a4.74,4.74,0,0,0-.44-1l-1.67,1A3.42,3.42,0,0,1,118.41,19.67Z"/><path class="cls-251" d="M116.46,20a1.89,1.89,0,0,1,.11.25l1.84-.6a3.42,3.42,0,0,0-.27-.62Z"/><path class="cls-252" d="M131.55,11.31l1.67-1a20.84,20.84,0,0,0-2.53-3.5l-1.44,1.3A18.5,18.5,0,0,1,131.55,11.31Z"/><path class="cls-253" d="M129.87,12.28l1.68-1a18.5,18.5,0,0,0-2.3-3.17l-1.44,1.29A17,17,0,0,1,129.87,12.28Z"/><path class="cls-254" d="M128.19,13.25l1.68-1a17,17,0,0,0-2.06-2.85l-1.44,1.3A15,15,0,0,1,128.19,13.25Z"/><path class="cls-255" d="M126.52,14.21l1.67-1a15,15,0,0,0-1.82-2.52L124.93,12A13.06,13.06,0,0,1,126.52,14.21Z"/><path class="cls-256" d="M124.84,15.18l1.68-1A13.06,13.06,0,0,0,124.93,12l-1.44,1.3A10.54,10.54,0,0,1,124.84,15.18Z"/><path class="cls-257" d="M123.16,16.15l1.68-1a10.54,10.54,0,0,0-1.35-1.86l-1.44,1.3A8.55,8.55,0,0,1,123.16,16.15Z"/><path class="cls-258" d="M121.49,17.12l1.67-1a8.55,8.55,0,0,0-1.11-1.53l-1.44,1.29A7.65,7.65,0,0,1,121.49,17.12Z"/><path class="cls-259" d="M119.81,18.09l1.68-1a7.65,7.65,0,0,0-.88-1.21l-1.44,1.3A4.72,4.72,0,0,1,119.81,18.09Z"/><path class="cls-260" d="M118.13,19.05l1.68-1a4.72,4.72,0,0,0-.64-.88l-1.43,1.29A3.63,3.63,0,0,1,118.13,19.05Z"/><path class="cls-261" d="M116.3,19.8a1.77,1.77,0,0,1,.16.22l1.67-1a3.63,3.63,0,0,0-.39-.55Z"/><path class="cls-262" d="M129.25,8.14l1.43-1.3A20.31,20.31,0,0,0,127.47,4l-1.13,1.57A19.31,19.31,0,0,1,129.25,8.14Z"/><path class="cls-263" d="M127.81,9.44l1.44-1.3a19.31,19.31,0,0,0-2.91-2.62L125.2,7.08A17.51,17.51,0,0,1,127.81,9.44Z"/><path class="cls-264" d="M126.37,10.73l1.44-1.29a17.51,17.51,0,0,0-2.61-2.36l-1.14,1.57A15,15,0,0,1,126.37,10.73Z"/><path class="cls-265" d="M124.93,12l1.44-1.3a15,15,0,0,0-2.31-2.08l-1.14,1.57A12.65,12.65,0,0,1,124.93,12Z"/><path class="cls-266" d="M123.49,13.32,124.93,12a12.65,12.65,0,0,0-2-1.81l-1.14,1.56A11.28,11.28,0,0,1,123.49,13.32Z"/><path class="cls-267" d="M122.05,14.62l1.44-1.3a11.28,11.28,0,0,0-1.71-1.54l-1.13,1.57A8.79,8.79,0,0,1,122.05,14.62Z"/><path class="cls-268" d="M120.61,15.91l1.44-1.29a8.79,8.79,0,0,0-1.4-1.27l-1.14,1.57A7.29,7.29,0,0,1,120.61,15.91Z"/><path class="cls-269" d="M119.17,17.21l1.44-1.3a7.29,7.29,0,0,0-1.1-1l-1.14,1.56A4.59,4.59,0,0,1,119.17,17.21Z"/><path class="cls-270" d="M117.74,18.5l1.43-1.29a4.59,4.59,0,0,0-.8-.73l-1.14,1.57A3.57,3.57,0,0,1,117.74,18.5Z"/><path class="cls-271" d="M116.09,19.62a1.18,1.18,0,0,1,.21.18l1.44-1.3a3.57,3.57,0,0,0-.51-.45Z"/><path class="cls-272" d="M126.33,5.52,127.47,4a21.31,21.31,0,0,0-3.74-2.16l-.79,1.77A18.06,18.06,0,0,1,126.33,5.52Z"/><path class="cls-273" d="M125.2,7.09l1.13-1.57a18.06,18.06,0,0,0-3.39-2l-.78,1.77A16.64,16.64,0,0,1,125.2,7.09Z"/><path class="cls-274" d="M124.06,8.65l1.14-1.56a16.64,16.64,0,0,0-3-1.76l-.79,1.76A15.52,15.52,0,0,1,124.06,8.65Z"/><path class="cls-275" d="M122.92,10.22l1.14-1.57a15.52,15.52,0,0,0-2.69-1.56l-.79,1.77A13.82,13.82,0,0,1,122.92,10.22Z"/><path class="cls-276" d="M121.78,11.78l1.14-1.56a13.82,13.82,0,0,0-2.34-1.36l-.79,1.77A11,11,0,0,1,121.78,11.78Z"/><path class="cls-277" d="M120.64,13.35l1.14-1.57a11,11,0,0,0-2-1.15L119,12.4A8.73,8.73,0,0,1,120.64,13.35Z"/><path class="cls-278" d="M119.51,14.92l1.13-1.57A8.73,8.73,0,0,0,119,12.4l-.78,1.77A7.33,7.33,0,0,1,119.51,14.92Z"/><path class="cls-279" d="M118.37,16.48l1.14-1.56a7.33,7.33,0,0,0-1.29-.75l-.79,1.77A5.56,5.56,0,0,1,118.37,16.48Z"/><path class="cls-280" d="M117.23,18.05l1.14-1.57a5.56,5.56,0,0,0-.94-.54l-.79,1.77A2.91,2.91,0,0,1,117.23,18.05Z"/><path class="cls-281" d="M115.85,19.48a.72.72,0,0,1,.24.14l1.14-1.57a2.91,2.91,0,0,0-.59-.34Z"/><path class="cls-282" d="M122.94,3.56l.79-1.77A21,21,0,0,0,119.62.45l-.4,1.9A18.56,18.56,0,0,1,122.94,3.56Z"/><path class="cls-283" d="M122.15,5.33l.79-1.77a18.56,18.56,0,0,0-3.72-1.21l-.41,1.89A16.5,16.5,0,0,1,122.15,5.33Z"/><path class="cls-284" d="M121.37,7.1l.78-1.77a16.5,16.5,0,0,0-3.34-1.09l-.4,1.89A15.52,15.52,0,0,1,121.37,7.1Z"/><path class="cls-285" d="M120.58,8.87l.79-1.77a15.52,15.52,0,0,0-3-1L118,8A12.26,12.26,0,0,1,120.58,8.87Z"/><path class="cls-286" d="M119.79,10.63l.79-1.76A12.26,12.26,0,0,0,118,8l-.4,1.89A11.8,11.8,0,0,1,119.79,10.63Z"/><path class="cls-287" d="M119,12.4l.79-1.77a11.8,11.8,0,0,0-2.18-.71l-.41,1.9A9.2,9.2,0,0,1,119,12.4Z"/><path class="cls-288" d="M118.22,14.17,119,12.4a9.2,9.2,0,0,0-1.8-.58l-.4,1.89A7.58,7.58,0,0,1,118.22,14.17Z"/><path class="cls-289" d="M117.43,15.94l.79-1.77a7.58,7.58,0,0,0-1.42-.46l-.4,1.89A5.65,5.65,0,0,1,117.43,15.94Z"/><path class="cls-290" d="M116.64,17.71l.79-1.77a5.65,5.65,0,0,0-1-.34l-.4,1.9A3.19,3.19,0,0,1,116.64,17.71Z"/><path class="cls-291" d="M115.59,19.39a1.14,1.14,0,0,1,.26.09l.79-1.77a3.19,3.19,0,0,0-.64-.21Z"/><path class="cls-292" d="M119.22,2.35l.4-1.89a20.42,20.42,0,0,0-4.3-.46V1.94A18.67,18.67,0,0,1,119.22,2.35Z"/><path class="cls-293" d="M118.81,4.24l.41-1.89a18.67,18.67,0,0,0-3.9-.41V3.87A16.7,16.7,0,0,1,118.81,4.24Z"/><path class="cls-294" d="M118.41,6.14l.4-1.9a16.7,16.7,0,0,0-3.49-.37V5.81A14.9,14.9,0,0,1,118.41,6.14Z"/><path class="cls-295" d="M118,8l.4-1.89a14.9,14.9,0,0,0-3.09-.33V7.75A13,13,0,0,1,118,8Z"/><path class="cls-296" d="M117.61,9.92,118,8a13,13,0,0,0-2.69-.28V9.68A11.28,11.28,0,0,1,117.61,9.92Z"/><path class="cls-297" d="M117.2,11.82l.41-1.9a11.28,11.28,0,0,0-2.29-.24v1.94A8.65,8.65,0,0,1,117.2,11.82Z"/><path class="cls-298" d="M116.8,13.71l.4-1.89a8.65,8.65,0,0,0-1.88-.2v1.93A8.37,8.37,0,0,1,116.8,13.71Z"/><path class="cls-299" d="M116.4,15.61l.4-1.9a8.37,8.37,0,0,0-1.48-.16v1.94A5,5,0,0,1,116.4,15.61Z"/><path class="cls-300" d="M116,17.5l.4-1.89a5,5,0,0,0-1.08-.12v1.94A3.21,3.21,0,0,1,116,17.5Z"/><path class="cls-301" d="M115.32,19.36a1.24,1.24,0,0,1,.27,0L116,17.5a3.21,3.21,0,0,0-.68-.07Z"/></g></g></svg>